<?xml version="1.0" standalone="no"?>
<!DOCTYPE svg PUBLIC "-//W3C//DTD SVG 20010904//EN"
 "http://www.w3.org/TR/2001/REC-SVG-20010904/DTD/svg10.dtd">
<svg version="1.0" xmlns="http://www.w3.org/2000/svg"
 width="1200.000000pt" height="628.000000pt" viewBox="0 0 1200.000000 628.000000"
 preserveAspectRatio="xMidYMid meet">

<g transform="translate(0.000000,628.000000) scale(0.100000,-0.100000)"
fill="#000000" stroke="none">
<path d="M765 5910 c1 -32 4 -62 8 -66 4 -4 7 9 7 30 0 24 5 39 15 43 21 7 27
0 36 -44 l7 -38 -1 45 c-2 42 -4 45 -29 45 -23 -1 -28 4 -28 22 0 13 -3 23 -7
23 -5 0 -8 -27 -8 -60z"/>
<path d="M870 5960 c0 -5 5 -10 10 -10 6 0 10 5 10 10 0 6 -4 10 -10 10 -5 0
-10 -4 -10 -10z"/>
<path d="M1123 5905 c0 -38 2 -60 4 -47 5 27 19 28 33 2 6 -11 15 -20 21 -20
5 0 2 11 -7 25 -16 24 -16 27 1 45 10 11 14 20 8 20 -5 0 -18 -10 -29 -21
l-19 -21 -6 43 c-5 36 -6 32 -6 -26z"/>
<path d="M509 5946 c-2 -11 -2 -39 0 -63 3 -37 6 -43 25 -42 16 1 17 2 4 6
-12 3 -18 14 -18 33 0 17 7 33 18 39 15 9 15 10 0 11 -9 0 -18 8 -20 18 -4 15
-5 15 -9 -2z"/>
<path d="M581 5916 c-7 -8 -11 -27 -9 -43 3 -24 7 -28 38 -29 24 -1 27 0 8 3
-14 2 -28 10 -31 16 -7 19 11 57 28 57 21 0 19 -30 -2 -31 -11 0 -13 -2 -5 -6
7 -3 19 -2 28 1 12 4 13 10 4 26 -12 23 -42 26 -59 6z"/>
<path d="M681 5916 c-7 -8 -11 -27 -9 -43 3 -24 7 -28 38 -29 24 -1 27 0 8 3
-31 5 -42 27 -27 55 7 13 17 18 30 15 10 -3 17 -1 13 4 -8 14 -40 11 -53 -5z"/>
<path d="M870 5877 c0 -29 -5 -58 -12 -65 -7 -7 -8 -12 -2 -12 22 0 34 27 34
77 0 29 -4 53 -10 53 -5 0 -10 -24 -10 -53z"/>
<path d="M926 5914 c-19 -18 -20 -28 -6 -55 20 -37 80 -18 80 26 0 42 -44 59
-74 29z m52 -32 c3 -30 1 -33 -20 -30 -23 3 -34 27 -24 54 11 28 41 11 44 -24z"/>
<path d="M1028 5904 c-16 -34 0 -58 38 -61 28 -2 28 -2 4 5 -19 6 -25 15 -25
37 0 24 4 30 22 29 12 0 20 3 17 8 -11 18 -45 7 -56 -18z"/>
<path d="M1221 5916 c-7 -8 -11 -27 -9 -43 2 -23 8 -29 36 -31 17 -2 32 1 32
5 0 5 -12 9 -27 8 -14 0 -28 6 -30 13 -3 8 6 12 27 12 27 0 31 3 28 23 -4 26
-39 35 -57 13z m47 -13 c2 -8 -6 -13 -22 -13 -25 0 -33 10 -19 24 10 10 36 3
41 -11z"/>
<path d="M1300 5925 c0 -4 7 -20 16 -37 10 -18 14 -42 10 -59 -9 -44 2 -35 29
27 29 66 33 94 5 44 l-19 -35 -13 33 c-11 27 -28 44 -28 27z"/>
<path d="M1449 5909 c-17 -33 3 -69 38 -68 l28 1 -25 7 c-19 5 -25 13 -25 36
0 25 4 30 23 29 12 0 22 3 22 8 0 18 -50 7 -61 -13z"/>
<path d="M1539 5909 c-17 -33 4 -71 38 -67 36 4 50 29 35 62 -15 33 -56 35
-73 5z m56 -24 c0 -23 -4 -30 -20 -30 -21 0 -31 25 -21 51 11 28 41 12 41 -21z"/>
<path d="M1651 5880 l2 -45 6 40 c4 26 11 40 21 40 10 0 17 -14 21 -40 4 -28
7 -32 8 -13 2 38 11 58 27 58 10 0 14 -12 14 -40 0 -22 5 -40 10 -40 12 0 13
59 2 76 -4 7 -30 11 -59 11 l-53 -1 1 -46z"/>
<path d="M1400 5850 c0 -5 5 -10 11 -10 5 0 7 5 4 10 -3 6 -8 10 -11 10 -2 0
-4 -4 -4 -10z"/>
<path d="M5652 5018 c-9 -4 -12 -7 -5 -7 12 -1 16 -52 13 -183 0 -36 4 -58 10
-58 6 0 8 -5 5 -11 -4 -6 -14 -8 -23 -4 -19 7 -152 -16 -152 -27 0 -4 16 -8
35 -8 19 0 35 -4 35 -10 0 -5 -16 -10 -35 -10 -19 0 -35 -4 -35 -10 0 -5 21
-10 46 -10 27 0 43 -4 39 -10 -3 -5 -24 -10 -46 -10 -28 0 -39 -4 -39 -15 0
-11 8 -13 30 -8 17 3 30 2 30 -1 0 -4 -13 -12 -30 -17 -23 -9 -30 -17 -30 -37
1 -23 2 -25 11 -9 23 39 68 7 69 -50 0 -29 3 -33 27 -33 21 0 24 3 15 12 -15
15 -16 32 -2 23 6 -3 13 0 16 9 3 8 12 12 21 9 9 -4 11 -8 4 -12 -6 -4 -6 -12
-2 -20 6 -10 13 -5 27 18 10 17 26 34 36 37 41 13 46 40 50 257 l3 208 -53 -3
c-29 -2 -60 -6 -70 -10z"/>
<path d="M6099 5023 c0 -5 -2 -66 -2 -137 l-2 -130 -35 -3 c-69 -6 -95 -14
-120 -33 -14 -11 -19 -20 -12 -20 8 0 12 -9 10 -22 -2 -14 5 -30 17 -40 l20
-18 -20 -16 c-11 -8 -32 -18 -46 -21 -30 -6 -127 -88 -117 -99 5 -4 16 0 26 9
25 23 29 21 28 -9 -1 -33 30 -57 44 -35 6 10 3 19 -8 28 -15 13 -14 13 7 7 19
-5 23 -3 18 9 -8 22 20 44 35 29 16 -16 28 -15 28 2 0 9 7 12 20 9 12 -3 20 0
20 7 0 22 28 40 63 40 19 0 53 7 76 15 l41 14 0 -63 c0 -69 -6 -76 -60 -76
l-27 0 2 -99 c1 -54 5 -104 9 -110 5 -8 -41 -11 -169 -11 l-176 0 2 94 c2 98
-3 116 -27 116 -8 0 -19 10 -24 23 -5 12 -9 16 -9 10 -1 -7 -12 -13 -26 -13
-27 0 -32 -9 -15 -26 7 -7 7 -19 2 -35 -9 -22 -7 -129 3 -156 3 -10 -64 -13
-315 -13 -176 0 -320 3 -320 7 0 3 7 14 16 24 9 10 19 39 22 64 2 25 9 48 13
51 5 3 9 16 9 30 0 15 12 36 29 52 21 20 30 39 34 76 3 30 1 43 -4 35 -5 -8
-9 -28 -9 -45 0 -17 -6 -36 -12 -41 -7 -6 -46 -10 -85 -11 -57 0 -73 3 -73 14
0 8 -5 14 -11 14 -6 0 -9 -6 -6 -13 4 -10 -5 -13 -34 -13 -21 1 -39 5 -39 10
0 6 -5 5 -11 -1 -7 -7 -21 -8 -40 -3 -16 5 -29 6 -29 2 0 -4 -11 -8 -24 -8
-19 -1 -23 2 -18 20 5 21 5 21 -17 -1 -12 -13 -28 -23 -36 -23 -8 0 -15 -4
-15 -10 0 -5 -4 -10 -10 -10 -5 0 -7 6 -5 13 8 19 -165 10 -187 -10 -21 -19
-23 -44 -5 -62 6 -8 7 -11 1 -8 -6 4 -10 -6 -10 -28 1 -18 3 -33 6 -32 6 2 10
-8 10 -24 0 -5 -4 -8 -10 -4 -5 3 -8 -9 -6 -29 l2 -36 -165 -2 -166 -3 -5
-107 c-3 -59 -3 -118 0 -130 12 -47 17 -48 653 -45 l597 2 0 -107 c0 -84 3
-110 16 -122 8 -9 18 -16 22 -16 4 -1 188 -1 408 -1 221 -1 406 -4 411 -8 18
-12 21 -37 7 -56 -8 -10 -14 -27 -14 -36 0 -10 -3 -19 -7 -21 -5 -1 -15 -16
-23 -33 -9 -16 -28 -36 -43 -43 -30 -15 -33 -28 -13 -58 8 -11 16 -31 18 -44
2 -18 11 -27 33 -31 17 -4 26 -7 22 -8 -4 0 1 -11 13 -23 11 -12 20 -25 20
-29 0 -4 10 -25 22 -46 36 -60 32 -86 -16 -125 -49 -40 -85 -60 -96 -53 -4 3
-13 -2 -20 -10 -7 -8 -16 -12 -21 -9 -5 3 -14 2 -19 -1 -16 -10 8 -35 26 -28
8 3 14 1 14 -4 0 -6 31 -9 74 -7 68 2 76 1 97 -22 14 -15 19 -28 14 -32 -6 -4
-10 -13 -11 -19 -2 -29 -5 -32 -19 -27 -9 4 -15 1 -15 -7 0 -24 -66 -59 -102
-55 -18 2 -34 8 -36 14 -6 20 -29 -11 -25 -33 4 -16 3 -17 -6 -5 -10 13 -12
13 -21 0 -7 -11 -4 -17 10 -24 11 -5 20 -13 20 -18 0 -12 34 -10 47 3 17 17
83 -6 110 -38 27 -30 53 -39 53 -17 0 9 4 13 10 9 13 -8 1 -35 -16 -35 -8 0
-14 -5 -14 -10 0 -6 5 -9 11 -8 6 2 14 -3 16 -10 3 -7 -1 -10 -10 -6 -15 5
-42 -28 -31 -38 5 -5 -15 -58 -26 -68 -12 -12 -30 -51 -21 -45 6 3 11 2 11 -4
0 -12 -39 -35 -47 -27 -3 3 -14 1 -24 -4 -14 -8 -21 -6 -29 10 -6 11 -10 26
-9 33 1 6 1 23 0 36 -1 27 -14 21 -16 -7 -4 -45 -18 -83 -29 -79 -6 3 -16 -6
-22 -18 -11 -22 -9 -24 24 -30 45 -8 26 -22 -26 -19 -36 3 -37 3 -16 -14 23
-20 47 -79 35 -87 -5 -3 -9 -34 -9 -69 0 -35 -3 -69 -6 -74 -9 -14 27 -24 58
-16 25 6 25 7 28 128 l3 121 33 0 c37 0 52 -12 31 -26 -8 -5 -9 -9 -4 -9 11 0
13 -209 2 -227 -4 -7 -3 -14 1 -17 14 -9 -11 -76 -28 -76 -13 0 -13 -1 0 -10
13 -8 12 -10 -3 -10 -10 0 -15 -5 -12 -10 3 -6 -5 -14 -20 -20 -14 -5 -28 -16
-31 -25 -3 -8 -10 -12 -15 -9 -5 3 -6 -3 -2 -12 5 -13 3 -16 -10 -11 -11 4
-17 1 -17 -8 0 -8 -4 -15 -10 -15 -5 0 -10 -7 -10 -15 0 -8 -4 -15 -10 -15
-15 0 -12 -16 6 -34 8 -9 12 -16 7 -16 -4 0 -2 -4 6 -9 8 -5 15 -17 16 -28 1
-10 7 -28 13 -40 8 -14 9 -23 3 -23 -7 0 -7 -9 -1 -25 6 -15 6 -27 0 -30 -12
-8 5 -51 19 -48 6 2 11 -5 11 -15 0 -23 31 -25 47 -3 6 9 15 13 19 9 4 -5 -3
-16 -15 -27 -12 -11 -18 -22 -13 -25 5 -3 22 6 37 20 33 31 47 23 17 -9 -28
-29 -29 -46 -2 -22 22 20 40 14 22 -8 -7 -8 -7 -18 -2 -27 8 -13 10 -12 10 3
0 19 15 23 25 7 3 -5 12 -10 18 -10 7 0 6 4 -3 10 -12 8 -12 11 3 28 9 10 17
25 17 33 0 8 -8 2 -18 -14 -16 -27 -32 -36 -32 -18 0 5 5 11 12 13 7 3 9 12 5
22 -4 9 -10 15 -14 13 -5 -3 -8 6 -8 19 0 20 2 22 11 9 12 -17 44 -21 44 -5 0
5 -6 7 -14 4 -11 -4 -13 0 -9 17 4 13 8 18 11 11 2 -7 14 -10 30 -6 15 3 22 2
16 -3 -6 -4 -13 -16 -17 -26 -5 -15 -3 -17 12 -12 15 5 18 1 13 -20 -3 -20 0
-25 17 -25 13 0 19 -4 16 -11 -4 -6 -13 -8 -21 -5 -8 3 -14 1 -14 -5 0 -6 15
-9 35 -7 19 2 34 -1 34 -7 0 -5 -10 -9 -22 -8 -16 1 -17 0 -4 -4 11 -3 16 -11
13 -19 -3 -7 -1 -16 4 -19 6 -4 10 -22 10 -41 0 -19 5 -34 10 -34 6 0 10 -4
10 -10 0 -5 -7 -7 -15 -4 -14 6 -21 -12 -16 -40 1 -4 -5 -19 -14 -32 -20 -31
-19 -33 8 -27 18 4 19 3 7 -6 -13 -9 -12 -11 5 -12 11 -1 23 -1 28 0 4 0 7 -4
7 -9 0 -6 -10 -8 -24 -4 -17 4 -31 0 -46 -13 -20 -20 -20 -20 42 -11 97 13
221 39 243 51 11 6 23 10 28 9 4 -1 7 3 7 8 0 6 5 10 11 10 5 0 8 -4 5 -8 -3
-5 18 -1 45 7 43 13 47 16 28 23 -12 5 -24 6 -27 3 -3 -3 1 -5 9 -6 8 0 1 -5
-15 -10 -37 -10 -48 -2 -22 17 11 7 16 17 11 21 -4 5 -10 2 -12 -4 -3 -7 -9
-13 -15 -13 -6 0 -28 -14 -50 -31 -27 -22 -42 -29 -50 -21 -15 15 1 34 23 27
15 -5 17 -3 12 11 -5 13 -3 16 9 12 9 -4 32 5 52 18 20 14 36 20 36 14 0 -7 8
-9 20 -5 13 4 22 1 26 -9 14 -36 75 -25 118 23 21 23 46 30 27 7 -9 -11 -4
-10 23 2 31 14 35 19 29 41 l-6 26 26 -24 c22 -20 28 -21 40 -9 12 12 12 16
-1 28 -14 13 -15 12 -9 -3 3 -9 2 -17 -3 -17 -9 0 -25 20 -25 32 0 15 -13 17
-25 3 -7 -8 -19 -15 -26 -15 -8 0 -14 -6 -14 -12 0 -18 -99 -90 -112 -82 -7 4
-8 2 -4 -4 12 -20 -10 -13 -29 8 -13 15 -15 24 -8 31 12 12 36 3 28 -11 -6
-10 25 -23 34 -14 3 3 -4 14 -16 24 -28 22 -29 30 -5 30 10 0 36 13 58 30 40
31 64 38 64 19 0 -5 5 -7 10 -4 7 4 3 14 -10 25 -20 17 -20 19 -3 29 16 9 16
12 3 21 -8 5 -11 10 -6 10 5 0 17 -7 26 -15 14 -13 17 -12 29 7 11 18 11 20
-3 15 -9 -4 -16 -2 -16 3 0 5 26 14 58 21 32 7 68 22 83 36 14 12 29 23 33 23
4 0 16 10 27 23 10 12 18 16 19 10 0 -7 -5 -13 -11 -13 -5 0 -8 -4 -5 -9 4 -5
0 -11 -6 -14 -10 -3 -10 -8 -2 -16 14 -15 67 -4 57 13 -4 6 1 5 10 -2 9 -8 20
-11 24 -9 5 3 9 -2 9 -12 0 -14 -8 -16 -40 -14 -21 2 -46 -2 -54 -9 -13 -10
-14 -10 -8 0 11 18 -14 15 -37 -6 -15 -12 -21 -14 -24 -4 -3 6 -9 9 -15 6 -6
-4 -5 -10 3 -15 11 -8 11 -11 -3 -19 -9 -6 -15 -17 -12 -25 4 -8 10 -12 15 -9
5 3 7 9 4 14 -3 5 4 11 15 15 11 3 19 9 17 13 -1 4 3 7 8 7 6 0 9 -3 8 -7 -6
-17 18 -7 29 12 13 21 48 28 48 10 0 -5 -9 -10 -19 -10 -10 0 -22 -7 -25 -16
-3 -8 -14 -14 -23 -13 -33 3 -45 -1 -40 -13 2 -7 -2 -20 -9 -28 -9 -10 -10
-20 -4 -30 7 -11 10 -12 10 -2 0 7 7 20 15 29 8 8 13 19 10 24 -4 5 5 5 20 -1
34 -13 35 -13 29 4 -3 8 3 19 15 26 14 7 21 7 21 0 0 -5 -4 -10 -10 -10 -5 0
-10 -5 -10 -10 0 -6 11 -3 24 7 20 15 21 19 8 24 -14 5 -14 7 2 16 11 6 27 8
36 6 10 -3 21 0 24 6 4 6 2 11 -3 11 -6 0 -11 5 -11 11 0 5 8 9 18 8 30 -3 37
1 22 12 -12 8 -11 9 7 4 17 -5 44 16 145 114 67 67 117 121 111 121 -7 0 -13
-4 -13 -9 0 -15 -54 -45 -76 -43 -12 1 -27 -5 -34 -13 -15 -18 1 -20 18 -3 6
6 14 9 17 7 2 -3 -27 -28 -65 -57 -39 -29 -69 -49 -68 -45 2 5 -2 9 -7 10 -6
2 -10 -4 -10 -11 0 -22 -11 -28 -12 -6 -1 10 7 26 18 36 18 16 19 16 19 0 0
-10 5 -14 11 -11 6 4 8 13 5 20 -2 7 2 16 10 19 9 4 12 2 8 -5 -4 -7 -1 -10 7
-7 8 3 13 10 12 16 -2 7 4 9 15 5 14 -6 15 -4 4 9 -11 14 -8 19 20 39 18 13
40 23 48 21 12 -2 13 -1 1 7 -11 7 -10 11 8 20 12 7 27 9 33 5 6 -4 8 -3 4 4
-12 20 73 90 94 77 5 -3 7 1 4 9 -3 8 2 17 13 20 19 6 63 64 63 84 0 7 5 12
10 12 6 0 10 5 10 11 0 5 -5 7 -12 3 -7 -4 -8 -3 -4 5 4 6 11 9 16 6 5 -3 11
-1 15 5 3 5 1 10 -4 10 -6 0 -11 7 -11 15 0 9 6 15 13 13 7 -2 13 0 15 5 1 4
13 20 27 35 14 15 25 30 25 35 0 5 12 33 26 62 14 30 22 60 18 66 -4 7 -3 9 4
5 6 -4 18 15 30 46 11 29 23 61 27 70 6 15 1 17 -42 12 -27 -3 -74 1 -110 9
-45 11 -74 12 -103 6 -23 -5 -46 -6 -52 -3 -6 4 -8 -1 -3 -15 5 -16 3 -20 -9
-15 -9 3 -14 9 -12 13 3 4 -4 7 -15 7 -21 0 -26 -21 -6 -33 6 -4 23 -6 36 -4
16 2 21 -1 16 -10 -5 -7 -4 -10 3 -5 6 3 9 14 7 24 -2 12 4 18 17 19 16 2 18
-1 9 -10 -22 -22 -13 -36 14 -24 16 8 25 20 25 35 0 13 4 20 10 17 17 -11 11
-43 -12 -59 -12 -9 -17 -16 -11 -16 6 0 16 7 23 14 8 11 18 12 36 6 13 -5 24
-8 25 -7 0 1 2 10 4 20 5 27 15 34 25 17 11 -18 -27 -63 -48 -55 -7 2 -11 1
-9 -3 3 -4 -6 -15 -18 -25 -23 -17 -24 -16 -20 3 5 26 -4 25 -45 -5 -44 -32
-54 -32 -15 1 28 23 28 24 6 18 -13 -3 -35 -17 -50 -29 -74 -66 -90 -77 -76
-55 3 6 -1 10 -9 10 -10 0 -13 -6 -10 -15 5 -11 2 -13 -11 -9 -12 5 -16 2 -13
-11 2 -10 -3 -20 -11 -23 -8 -3 -11 0 -7 7 5 7 1 9 -9 4 -10 -3 -13 -8 -6 -12
5 -4 7 -11 3 -16 -12 -17 -90 -75 -101 -75 -6 0 -11 -4 -11 -10 0 -5 -8 -14
-19 -19 -14 -8 -22 -6 -35 8 -15 16 -13 20 36 54 42 29 55 34 67 24 12 -10 13
-9 3 9 -10 18 -8 23 16 34 15 8 32 12 37 11 6 -2 7 0 3 4 -4 4 9 20 28 37 27
23 37 28 48 19 15 -12 46 -5 46 11 0 6 -11 7 -27 3 -23 -6 -25 -4 -13 10 7 9
19 14 27 11 9 -4 11 -1 7 6 -4 7 -3 8 5 4 6 -4 9 -12 6 -17 -10 -15 12 -10 25
6 10 12 9 15 -5 15 -10 0 -28 8 -39 17 -12 10 -18 14 -14 9 14 -16 -12 -37
-32 -26 -20 11 -50 4 -50 -11 0 -5 -5 -9 -11 -9 -5 0 -8 4 -5 8 3 5 -15 9 -38
11 -50 2 -69 -21 -41 -48 9 -9 15 -11 13 -6 -2 6 0 11 5 13 4 1 7 0 7 -3 0 -3
0 -9 0 -15 0 -5 -9 -14 -20 -20 -16 -9 -18 -8 -14 5 4 8 2 15 -4 15 -6 0 -9
-8 -8 -17 5 -33 -112 -103 -122 -73 -6 18 -30 11 -37 -11 -4 -11 -9 -18 -12
-15 -3 3 -14 1 -24 -5 -11 -5 -19 -6 -19 -2 0 11 37 43 50 43 6 0 10 5 10 10
0 7 6 7 19 0 20 -10 51 -4 51 10 0 5 -9 7 -20 5 -32 -6 -23 10 27 49 48 37 63
43 63 26 0 -5 5 -10 11 -10 5 0 7 4 4 10 -7 11 12 51 29 62 7 5 4 8 -6 8 -10
0 -18 -4 -18 -10 0 -5 -5 -10 -12 -10 -7 0 -25 -12 -41 -27 l-29 -28 -23 28
c-23 26 -45 36 -45 19 0 -4 -9 -13 -21 -20 -16 -10 -24 -11 -35 -1 -12 10 -17
9 -27 0 -9 -10 -8 -12 5 -9 9 1 18 -1 20 -7 2 -5 -12 -11 -30 -12 -19 -1 -41
-8 -51 -17 -15 -14 -19 -14 -34 4 -15 18 -15 20 2 29 12 7 22 6 31 -2 12 -10
12 -9 2 4 -10 14 -10 18 3 23 9 3 13 2 10 -3 -3 -5 -1 -12 5 -16 5 -3 10 1 10
10 0 28 -29 28 -66 -1 -20 -16 -44 -33 -53 -39 -23 -14 -89 -64 -135 -102 -22
-18 -44 -33 -50 -33 -6 0 4 10 21 23 65 46 232 182 233 190 0 15 -17 5 -80
-44 -64 -50 -39 -22 32 36 29 24 36 36 31 53 -3 12 -9 19 -14 16 -5 -3 -7 -10
-4 -15 7 -10 -8 -12 -18 -3 -4 4 3 15 15 26 23 20 17 38 -6 19 -8 -7 -20 -10
-25 -6 -6 3 -9 0 -6 -7 3 -8 -7 -21 -23 -30 -22 -13 -29 -14 -29 -4 0 7 7 13
16 12 8 0 17 7 19 17 4 17 -19 22 -88 18 -14 -1 -39 3 -55 10 -39 15 -95 22
-95 11 0 -4 -14 -9 -31 -10 l-31 -2 7 62 c5 37 17 77 30 99 27 41 45 101 49
162 2 23 11 95 21 159 14 87 22 115 30 108 8 -7 20 0 38 20 15 17 33 30 41 30
20 0 95 88 102 119 4 14 16 53 27 86 14 42 20 88 21 155 1 112 -19 184 -66
231 -26 25 -36 29 -61 23 -31 -6 -31 -6 -15 17 9 13 48 57 87 97 81 84 98 126
86 207 -5 28 -9 88 -10 135 -2 96 -22 155 -59 171 -21 10 -24 18 -24 69 0 65
-20 114 -62 147 -20 17 -26 29 -23 48 3 13 2 40 -1 59 -6 31 -15 38 -96 80
-76 40 -266 116 -288 116 -4 0 -7 -48 -7 -107 l0 -108 -42 -3 c-42 -3 -62 -22
-24 -22 10 0 21 -7 25 -15 3 -8 2 -15 -3 -15 -4 0 -7 -22 -6 -49 2 -47 0 -49
-28 -55 -45 -9 -120 -7 -137 4 -16 10 -17 16 -19 266 l-1 156 -50 -4 c-28 -1
-50 0 -50 5 0 4 -25 7 -55 7 -30 0 -55 -3 -56 -7z m462 -550 c5 -40 5 -380 0
-388 -3 -5 -10 28 -16 75 l-10 85 -172 3 -173 2 0 75 0 75 37 -4 c60 -8 93 3
93 30 0 13 1 24 3 24 1 0 20 7 42 15 41 15 194 21 196 8z m-686 -21 c-3 -3
-11 0 -18 7 -9 10 -8 11 6 5 10 -3 15 -9 12 -12z m-1257 -67 c-3 -13 -2 -22 2
-20 4 3 10 -4 13 -15 4 -16 2 -18 -12 -10 -12 6 -22 5 -29 -2 -9 -9 -15 -9
-24 1 -7 8 -8 11 -2 8 6 -3 18 9 27 28 19 41 31 46 25 10z m-48 5 c0 -5 -5
-10 -11 -10 -5 0 -7 5 -4 10 3 6 8 10 11 10 2 0 4 -4 4 -10z m105 -25 c0 -19
-5 -35 -10 -35 -14 0 -13 53 0 62 6 4 10 8 10 8 0 0 0 -16 0 -35z m82 19 c5
-13 -26 -54 -41 -54 -6 0 -5 50 1 63 7 13 33 7 40 -9z m111 -19 c0 -19 -4 -35
-9 -35 -10 0 -12 31 -3 54 9 24 12 20 12 -19z m-303 4 c20 0 20 0 0 -8 -21 -9
-45 3 -45 22 0 7 4 7 12 -1 7 -7 21 -12 33 -13z m242 -5 c5 -17 -13 -35 -30
-28 -13 5 -14 10 -6 26 10 19 30 21 36 2z m33 9 c0 -5 -5 -15 -10 -23 -8 -12
-10 -11 -10 8 0 12 5 22 10 22 6 0 10 -3 10 -7z m108 -7 c-7 -8 -15 -12 -17
-11 -5 6 10 25 20 25 5 0 4 -6 -3 -14z m48 -10 c0 -13 -4 -22 -8 -19 -11 6
-10 43 1 43 5 0 8 -11 7 -24z m-96 -16 c5 0 11 5 13 10 3 6 4 5 3 -2 -4 -18
-30 -16 -32 2 0 9 1 10 3 3 3 -7 8 -13 13 -13z m117 8 c-3 -8 -6 -5 -6 6 -1
11 2 17 5 13 3 -3 4 -12 1 -19z m-47 -2 c0 -3 -4 -8 -10 -11 -5 -3 -10 -1 -10
4 0 6 5 11 10 11 6 0 10 -2 10 -4z m-435 -46 c3 -5 1 -10 -4 -10 -6 0 -11 5
-11 10 0 6 2 10 4 10 3 0 8 -4 11 -10z m-260 -170 c19 -37 19 -46 0 -30 -12
10 -18 10 -30 0 -8 -7 -15 -10 -15 -8 0 10 22 68 26 68 2 0 10 -13 19 -30z
m72 16 c-3 -7 -1 -18 4 -23 6 -6 4 -15 -6 -23 -13 -11 -18 -11 -28 0 -10 10
-9 12 6 7 20 -7 20 -7 7 27 -8 21 -7 26 6 26 10 0 14 -6 11 -14z m70 -2 c7
-20 -8 -48 -29 -52 -16 -3 -28 32 -20 56 6 18 42 15 49 -4z m205 -14 c-5 -35
-19 -47 -35 -31 -7 7 -14 7 -24 0 -9 -8 -17 -8 -27 0 -11 9 -15 9 -19 -1 -3
-7 -6 -3 -6 10 -1 24 -21 31 -21 7 0 -8 -4 -15 -10 -15 -5 0 -7 7 -4 15 4 8 1
15 -4 15 -6 0 -13 -8 -15 -17 -4 -14 -5 -12 -6 5 -1 19 4 22 34 22 19 0 35 -5
35 -11 0 -6 7 -3 16 6 15 14 17 14 30 -2 8 -11 13 -13 14 -5 0 6 7 12 15 12 8
0 15 5 15 10 0 6 4 10 8 10 5 0 7 -14 4 -30z m77 -17 c1 -7 -3 -13 -9 -13 -5
0 -10 15 -9 33 0 27 2 29 9 12 5 -11 9 -26 9 -32z m96 30 c-2 -10 -4 -25 -5
-33 -1 -9 -5 -6 -11 8 -9 24 -5 42 11 42 4 0 7 -8 5 -17z m146 -27 c0 -6 5 0
10 13 8 19 12 21 24 11 16 -13 20 -36 7 -43 -16 -10 -62 6 -63 22 0 11 -3 9
-9 -6 -13 -33 -20 -28 -20 12 l0 35 25 -16 c14 -9 25 -21 26 -28z m214 27 c-2
-10 -4 -25 -4 -33 -1 -12 -3 -12 -10 -2 -6 11 -10 10 -15 -4 -6 -16 -8 -16
-23 -1 -13 13 -14 19 -3 32 10 12 16 13 26 4 11 -9 14 -8 14 5 0 9 4 16 9 16
5 0 8 -8 6 -17z m34 5 c-1 -7 -5 -24 -9 -38 -7 -22 -8 -21 -9 13 -1 20 4 37 9
37 6 0 10 -6 9 -12z m340 -19 c14 -41 14 -44 -3 -30 -7 6 -21 9 -30 5 -12 -5
-15 -2 -10 10 3 9 11 13 16 10 6 -4 8 2 3 15 -10 34 12 24 24 -10z m47 -4 c0
-20 -4 -35 -11 -35 -7 0 -11 15 -11 35 1 19 6 35 11 35 6 0 10 -16 11 -35z
m181 -12 c-3 -10 -5 -2 -5 17 0 19 2 27 5 18 2 -10 2 -26 0 -35z m133 38 c0
-6 -4 -13 -10 -16 -5 -3 -10 1 -10 9 0 9 5 16 10 16 6 0 10 -4 10 -9z m110
-21 c0 -16 -4 -30 -10 -30 -5 0 -10 14 -10 30 0 17 5 30 10 30 6 0 10 -13 10
-30z m52 7 c7 4 9 0 5 -10 -9 -23 1 -21 22 4 14 18 19 19 29 7 19 -24 -6 -47
-45 -41 -29 5 -33 9 -32 37 1 17 3 23 6 13 2 -9 9 -14 15 -10z m100 -2 c-2
-15 0 -25 7 -25 6 0 10 6 9 12 -2 7 7 14 20 16 18 3 22 -1 22 -22 0 -32 -8
-33 -20 -3 -7 17 -9 18 -9 5 -1 -11 -9 -18 -21 -18 -16 0 -20 7 -20 30 0 17 4
30 9 30 4 0 6 -11 3 -25z m123 15 c4 -6 1 -17 -5 -25 -6 -8 -9 -19 -5 -25 3
-5 -1 -10 -9 -10 -20 0 -20 5 1 37 17 26 17 27 0 20 -9 -3 -17 -2 -17 3 0 13
27 13 35 0z m63 -16 c3 -23 -21 -49 -38 -39 -11 7 -14 48 -3 59 13 13 38 1 41
-20z m47 16 c4 -6 1 -17 -5 -25 -6 -8 -9 -18 -6 -23 3 -5 -1 -9 -9 -9 -17 0
-20 23 -5 32 6 3 10 11 10 16 0 6 -4 7 -10 4 -5 -3 -10 -1 -10 4 0 14 27 14
35 1z m50 0 c4 -6 1 -18 -6 -26 -10 -13 -10 -17 2 -24 10 -7 8 -9 -9 -7 -26 2
-28 10 -7 27 8 7 15 17 15 22 0 6 -7 8 -15 4 -8 -3 -15 -1 -15 4 0 13 27 13
35 0z m-1767 -36 c-4 -25 -32 -24 -36 0 -4 21 18 40 31 27 5 -5 7 -17 5 -27z
m92 -8 c-7 -9 -16 -16 -20 -16 -15 0 -20 32 -9 47 11 12 14 12 27 -1 13 -12
13 -18 2 -30z m257 14 c0 -34 -12 -31 -19 5 -3 15 -1 25 7 25 6 0 12 -13 12
-30z m63 20 c0 -5 -5 -10 -12 -10 -6 0 -4 -6 7 -13 13 -10 15 -16 6 -21 -7 -5
-15 -5 -19 -2 -8 9 -12 38 -6 48 7 11 24 10 24 -2z m310 -17 c0 9 4 17 9 17
21 0 -3 -38 -27 -43 -35 -7 -47 5 -32 34 l12 22 19 -24 c15 -20 19 -21 19 -6z
m63 -13 c-6 -22 -6 -22 -27 -14 -19 7 -21 25 -4 42 16 16 37 -3 31 -28z m197
12 c1 -16 1 -16 11 1 14 23 28 22 22 -3 -7 -25 -40 -26 -46 -2 -3 12 -5 9 -6
-7 -1 -18 -4 -22 -12 -14 -8 8 -8 17 1 32 12 24 30 19 30 -7z m67 -2 c0 -16
-4 -27 -9 -24 -4 3 -8 16 -8 30 0 13 4 24 8 24 5 0 9 -13 9 -30z m117 19 c10
9 16 8 26 -4 11 -13 11 -19 -3 -32 -13 -13 -19 -14 -31 -3 -11 8 -16 9 -16 1
0 -17 -27 -13 -34 5 -9 24 13 47 30 33 11 -9 17 -9 28 0z m119 -19 c6 -24 -10
-37 -26 -20 -9 10 -9 11 1 6 7 -5 12 -1 12 9 0 9 -4 13 -10 10 -11 -7 -14 8
-4 18 10 10 21 0 27 -23z m-1102 11 c0 12 1 12 6 0 5 -11 7 -11 14 0 6 10 9 8
9 -10 0 -16 -4 -21 -14 -18 -7 3 -19 0 -25 -6 -8 -8 -11 -8 -11 0 0 6 -3 20
-7 30 -6 16 -5 16 10 4 14 -11 17 -11 18 0z m406 -7 c7 -20 -11 -38 -32 -30
-13 4 -14 10 -5 26 13 24 28 26 37 4z m33 6 c0 13 1 13 10 0 9 -13 11 -13 20
0 5 8 10 11 10 5 0 -18 -15 -31 -37 -32 -17 -1 -23 4 -23 20 0 18 2 19 10 7 9
-13 10 -13 10 0z m616 -14 c1 -18 -2 -22 -17 -19 -23 6 -23 7 -3 27 20 20 19
20 20 -8z m111 -13 c-3 -10 -5 -4 -5 12 0 17 2 24 5 18 2 -7 2 -21 0 -30z
m798 -113 c3 -5 1 -10 -4 -10 -6 0 -11 5 -11 10 0 6 2 10 4 10 3 0 8 -4 11
-10z m12 -62 c-3 -8 -6 -5 -6 6 -1 11 2 17 5 13 3 -3 4 -12 1 -19z m-706 -59
c-10 -23 -10 -23 -10 7 -1 17 2 34 7 38 11 12 14 -18 3 -45z m432 14 c-6 -37
-22 -45 -21 -10 1 20 17 51 23 45 2 -2 0 -18 -2 -35z m-1007 -1 c10 -27 10
-29 -17 -29 -33 0 -32 -1 -17 32 14 32 21 32 34 -3z m554 13 c0 -8 -4 -15 -10
-15 -5 0 -10 7 -10 15 0 8 5 15 10 15 6 0 10 -7 10 -15z m524 -14 c15 -28 15
-28 -14 -27 -17 1 -30 2 -30 3 0 5 24 53 26 53 2 0 10 -13 18 -29z m46 10 c0
-11 2 -26 5 -34 3 -7 0 -14 -8 -14 -9 0 -13 12 -13 34 1 34 16 48 16 14z
m-1050 -1 c13 -7 21 -7 25 0 5 8 11 7 21 -1 11 -9 18 -8 31 2 15 12 16 12 10
-4 -4 -10 -7 -23 -7 -28 0 -5 -5 -9 -11 -9 -5 0 -7 6 -3 13 4 6 4 9 -1 5 -4
-4 -14 -3 -22 3 -8 8 -13 8 -13 1 0 -6 6 -12 13 -15 6 -2 9 -8 4 -12 -4 -5
-12 -4 -19 3 -8 8 -14 7 -25 -4 -8 -8 -20 -14 -26 -13 -8 0 -8 2 1 6 10 4 9 8
-4 18 -10 7 -15 19 -11 29 7 19 12 19 37 6z m135 -26 c0 -21 -5 -29 -20 -31
l-20 -3 20 9 c16 8 17 10 4 10 -21 1 -31 25 -16 40 18 18 32 7 32 -25z m50 26
c5 -8 11 -7 20 0 18 15 35 5 35 -20 0 -27 -21 -36 -35 -16 -11 14 -13 15 -19
1 -8 -21 -23 -19 -31 5 -10 32 14 55 30 30z m151 -17 c4 -22 -21 -39 -31 -23
-4 6 -1 10 6 10 8 0 9 3 0 13 -6 8 -8 17 -4 21 11 11 26 1 29 -21z m55 4 c-13
-13 -26 -3 -16 12 3 6 11 8 17 5 6 -4 6 -10 -1 -17z m58 10 c8 -10 7 -18 -3
-32 -9 -12 -15 -15 -20 -6 -5 8 -13 8 -26 1 -13 -7 -21 -7 -26 2 -4 6 -3 8 3
5 5 -3 17 5 27 19 21 27 29 29 45 11z m121 4 c0 -5 -6 -11 -12 -14 -7 -2 -10
-8 -6 -12 4 -4 17 3 29 14 26 24 42 23 47 -3 5 -26 -14 -42 -31 -28 -10 9 -16
9 -25 0 -7 -7 -12 -8 -12 -2 0 5 -5 2 -10 -6 -7 -11 -10 -8 -10 16 0 17 3 34
7 37 9 10 23 9 23 -2z m120 -18 c0 -29 -12 -24 -17 7 -2 11 2 20 7 20 6 0 10
-12 10 -27z m33 -1 c-6 -24 -23 -30 -23 -9 0 13 21 39 26 34 2 -2 1 -13 -3
-25z m57 -7 c0 -17 -31 -28 -43 -16 -5 5 -4 17 3 31 9 17 14 19 26 9 8 -6 14
-17 14 -24z m46 10 c-1 -33 -16 -33 -16 0 0 14 4 25 9 25 5 0 8 -11 7 -25z
m69 -5 c0 -27 -22 -39 -31 -16 -8 22 3 49 19 43 6 -2 12 -14 12 -27z m-625
-10 c5 0 11 8 13 18 4 13 5 12 6 -4 0 -12 -5 -24 -13 -27 -18 -7 -26 1 -25 27
1 17 2 18 6 4 2 -10 8 -18 13 -18z m383 10 c-3 -11 -7 -20 -9 -20 -2 0 -4 9
-4 20 0 11 4 20 9 20 5 0 7 -9 4 -20z m144 -12 c-3 -7 -5 -2 -5 12 0 14 2 19
5 13 2 -7 2 -19 0 -25z m-317 2 c0 -5 -4 -10 -10 -10 -5 0 -10 5 -10 10 0 6 5
10 10 10 6 0 10 -4 10 -10z m727 -22 c-3 -8 -6 -5 -6 6 -1 11 2 17 5 13 3 -3
4 -12 1 -19z m-12 -107 c-3 -6 -11 -11 -17 -11 -6 0 -6 6 2 15 14 17 26 13 15
-4z m-425 -985 c0 -3 -4 -8 -10 -11 -5 -3 -10 -1 -10 4 0 6 5 11 10 11 6 0 10
-2 10 -4z m389 -189 c-2 -1 -13 -9 -24 -17 -19 -14 -19 -14 -6 3 7 9 18 17 24
17 6 0 8 -1 6 -3z m37 -19 c4 -7 3 -10 -1 -5 -5 4 -20 0 -34 -10 l-26 -16 19
21 c22 25 32 27 42 10z m60 -23 c-22 -19 -42 -33 -45 -30 -2 3 4 12 15 19 10
8 28 21 39 30 37 28 31 16 -9 -19z m77 24 c-9 -9 -8 -15 3 -26 20 -20 18 -26
-17 -52 -24 -18 -33 -20 -42 -11 -9 10 -9 11 1 6 6 -4 12 -2 12 3 0 10 -14 15
-33 12 -5 -1 -6 3 -2 9 4 7 12 7 26 0 19 -11 51 -1 51 15 0 13 -25 24 -37 17
-6 -4 1 3 15 15 26 24 43 32 23 12z m887 -13 c0 -2 -8 -10 -17 -17 -16 -13
-17 -12 -4 4 13 16 21 21 21 13z m-785 -17 c4 -6 14 -8 24 -5 11 4 10 1 -4 -9
-11 -9 -38 -30 -59 -48 -27 -21 -51 -32 -73 -32 -18 -1 -33 0 -33 1 0 1 24 19
53 40 28 20 56 43 60 50 10 17 23 18 32 3z m905 7 c0 -3 -4 -8 -10 -11 -5 -3
-10 -1 -10 4 0 6 5 11 10 11 6 0 10 -2 10 -4z m-1233 -48 c-3 -8 -6 -5 -6 6
-1 11 2 17 5 13 3 -3 4 -12 1 -19z m128 -8 c-3 -5 -12 -10 -18 -10 -7 0 -6 4
3 10 19 12 23 12 15 0z m995 -15 c-14 -8 -21 -14 -15 -15 5 0 4 -5 -2 -11 -6
-6 -17 -8 -23 -4 -8 5 -3 14 17 26 15 10 33 19 38 19 6 -1 -1 -7 -15 -15z
m-296 -36 c-9 -10 -21 -19 -26 -19 -4 0 -43 -29 -86 -65 -42 -36 -83 -63 -89
-60 -7 2 -12 -1 -10 -7 1 -7 -5 -12 -13 -13 -8 0 -14 -7 -12 -13 1 -7 -4 -12
-11 -10 -7 2 -14 -1 -16 -7 -5 -19 -23 -35 -33 -29 -13 8 5 27 86 88 39 30 84
66 99 80 16 14 34 27 40 30 7 3 1 15 -16 30 -25 23 -26 26 -8 26 36 0 53 -11
40 -26 -9 -11 -8 -14 5 -14 9 0 16 5 16 12 0 6 3 8 7 5 3 -4 13 3 21 15 10 14
17 17 20 9 2 -7 -4 -21 -14 -32z m-674 11 c0 -5 -10 -14 -22 -20 -22 -10 -22
-10 -4 4 10 8 15 20 10 27 -4 8 -3 10 4 5 7 -4 12 -11 12 -16z m422 2 c-7 -2
-10 -8 -7 -12 3 -5 12 -7 20 -3 8 3 15 0 15 -6 0 -6 -9 -11 -21 -11 -13 0 -18
-4 -13 -12 5 -8 2 -9 -10 -5 -9 4 -15 3 -12 -2 6 -8 -68 -75 -85 -77 -5 -1
-14 -2 -20 -3 -5 0 -8 -4 -6 -9 3 -4 -8 -7 -23 -7 -16 -1 -26 3 -24 7 8 12
-11 9 -24 -4 -6 -6 -14 -9 -17 -7 -2 3 10 13 27 23 21 13 28 15 23 5 -5 -8 -4
-11 1 -6 5 5 9 12 9 16 0 7 31 39 58 60 15 12 20 11 40 -5 15 -13 18 -14 9 -2
-7 9 -9 18 -5 20 4 3 2 3 -4 2 -7 -2 -13 1 -13 5 0 13 27 21 48 15 14 -5 15
-4 2 5 -13 9 -13 12 -1 20 8 5 21 6 30 3 10 -4 11 -7 3 -10z m-725 -111 c2
-118 1 -119 -24 -130 -30 -14 -174 -4 -185 13 -4 6 -8 62 -8 124 l0 112 108 0
108 0 1 -119z m1177 111 c3 -5 -6 -18 -19 -30 -13 -12 -27 -17 -30 -12 -3 6 5
15 19 21 14 7 23 16 20 20 -3 5 -3 9 0 9 3 0 7 -4 10 -8z m128 -24 c-7 -7 -12
-8 -12 -2 0 14 12 26 19 19 2 -3 -1 -11 -7 -17z m-935 -4 c-3 -3 -13 -7 -24
-9 -10 -1 -17 -8 -15 -14 1 -6 -5 -11 -15 -11 -15 0 -15 1 0 18 9 10 26 18 38
19 12 1 19 0 16 -3z m181 -22 c22 19 52 30 52 18 0 -13 -51 -50 -61 -44 -5 3
-8 1 -7 -4 2 -5 -14 -24 -36 -41 -40 -32 -51 -38 -41 -22 9 15 -15 24 -30 11
-10 -9 -12 -17 -5 -30 8 -14 4 -21 -15 -34 -15 -10 -26 -12 -30 -6 -3 6 1 10
10 10 9 0 13 5 10 11 -4 6 -13 8 -20 5 -7 -2 -18 1 -24 7 -21 21 -21 0 1 -28
21 -27 21 -27 0 -16 -32 17 -37 13 -16 -11 19 -23 19 -23 -2 -5 -11 9 -27 17
-35 17 -8 0 -4 6 9 16 12 8 20 19 17 24 -3 5 34 41 82 80 l87 72 18 -23 c17
-19 20 -20 36 -7z m552 24 c0 -2 -33 -28 -72 -59 -40 -31 -82 -64 -93 -74 -23
-22 -219 -179 -260 -208 -15 -11 -34 -26 -42 -34 -7 -7 -16 -11 -19 -9 -2 3
71 65 163 138 93 74 188 150 212 169 73 59 111 85 111 77z m-810 -20 c0 -2 -8
-10 -17 -17 -16 -13 -17 -12 -4 4 13 16 21 21 21 13z m819 -22 c-6 -8 -14 -13
-16 -10 -2 2 -21 -11 -41 -29 -20 -19 -39 -32 -43 -29 -4 2 -10 -4 -14 -13 -3
-10 -38 -43 -78 -72 -40 -30 -118 -90 -174 -134 -57 -43 -103 -75 -102 -70 0
4 30 31 65 58 36 28 76 60 89 71 13 12 50 42 82 67 32 25 72 57 88 71 17 15
42 34 57 42 15 8 31 21 36 30 5 8 17 17 28 18 10 2 18 9 16 16 -1 6 2 9 8 5 8
-5 7 -11 -1 -21z m76 -12 c-3 -4 -10 0 -14 7 -7 10 -10 10 -16 1 -4 -7 -1 -17
6 -22 10 -7 7 -8 -10 -4 -13 3 -34 0 -45 -6 -27 -14 -18 -4 30 32 33 24 40 26
47 14 5 -9 6 -18 2 -22z m83 31 c-10 -2 -18 -9 -18 -15 0 -6 -3 -9 -6 -5 -10
10 6 27 24 26 15 -1 15 -2 0 -6z m68 -5 c4 -7 4 -10 -1 -6 -4 4 -14 3 -22 -4
-11 -8 -12 -7 -7 6 7 19 20 21 30 4z m-966 -2 c0 -3 -4 -8 -10 -11 -5 -3 -10
-1 -10 4 0 6 5 11 10 11 6 0 10 -2 10 -4z m841 -33 c-12 -20 -14 -14 -5 12 4
9 9 14 11 11 3 -2 0 -13 -6 -23z m83 6 c14 -7 23 -16 20 -21 -3 -4 -10 -6 -15
-2 -15 9 -39 -15 -32 -32 4 -12 8 -12 21 -2 13 11 14 11 3 -7 -25 -39 -124
-100 -163 -101 -22 0 -34 4 -31 9 4 6 -1 8 -10 4 -30 -11 -17 7 31 43 34 26
56 35 80 34 21 -1 32 3 32 12 0 8 9 19 20 26 11 7 20 17 20 22 0 5 -8 2 -17
-6 -10 -9 -29 -21 -43 -27 -18 -9 -13 -2 15 23 47 42 38 39 69 25z m-964 -2
c0 -2 -10 -12 -22 -23 l-23 -19 19 23 c18 21 26 27 26 19z m-70 -21 c0 -3 -4
-8 -10 -11 -5 -3 -10 -1 -10 4 0 6 5 11 10 11 6 0 10 -2 10 -4z m20 -20 c0 -2
-8 -10 -17 -17 -16 -13 -17 -12 -4 4 13 16 21 21 21 13z m419 -22 c-7 -8 -7
-14 -1 -14 5 0 15 7 22 15 7 8 17 15 23 15 5 0 -8 -14 -29 -30 -46 -37 -64
-50 -87 -69 -9 -7 -17 -10 -17 -5 0 5 16 20 34 32 21 14 37 35 41 53 4 16 11
26 16 23 6 -4 6 -11 -2 -20z m426 16 c5 -8 11 -7 21 1 28 23 13 -2 -18 -31
-40 -35 -47 -36 -77 -9 -18 17 -20 23 -9 30 8 6 17 3 25 -8 10 -13 15 -14 28
-3 8 7 12 16 9 21 -3 5 -1 9 5 9 5 0 13 -5 16 -10z m-520 -51 c-6 -29 -15 -37
-15 -13 0 16 -2 17 -10 4 -6 -9 -10 -10 -10 -3 0 9 24 31 37 33 1 0 0 -10 -2
-21z m425 7 c0 -7 10 -17 23 -20 22 -7 22 -7 -7 -29 -16 -12 -46 -37 -67 -54
-36 -32 -56 -43 -44 -23 3 6 1 10 -5 10 -7 0 -10 -5 -8 -12 5 -15 -68 -81 -82
-73 -5 3 -10 0 -10 -7 0 -7 -9 -19 -20 -26 -13 -8 -20 -8 -20 -1 0 5 -4 8 -10
4 -5 -3 -7 -11 -4 -18 2 -7 -6 -18 -18 -26 -22 -13 -22 -13 -8 3 8 10 15 25
16 33 3 20 24 42 24 25 0 -7 5 -12 10 -12 6 0 10 6 10 14 0 8 7 17 16 20 9 3
12 11 8 18 -5 7 -2 9 9 5 8 -3 18 0 20 7 7 18 -20 15 -63 -7 -19 -10 -28 -12
-19 -5 8 7 37 31 65 53 27 22 51 43 52 48 2 4 10 7 18 7 8 0 14 5 14 10 0 6 7
13 16 17 9 3 28 17 42 29 28 27 42 30 42 10z m-761 2 c-2 -2 -16 -14 -31 -27
-16 -14 -28 -22 -28 -18 0 10 42 47 54 47 5 0 7 -1 5 -2z m176 -27 c-3 -6 -11
-11 -17 -11 -6 0 -6 6 2 15 14 17 26 13 15 -4z m65 -5 c0 -2 -12 -11 -27 -20
l-28 -17 24 20 c23 21 31 25 31 17z m269 -19 c12 -15 5 -27 -17 -27 -12 0 -12
3 -2 15 9 10 9 15 1 15 -11 0 -15 -13 -12 -36 1 -6 -5 -16 -12 -22 -10 -9 -13
-5 -13 16 0 45 31 67 55 39z m-259 -17 c0 -5 -4 -10 -10 -10 -5 0 -10 5 -10
10 0 6 5 10 10 10 6 0 10 -4 10 -10z m75 1 c3 -5 2 -12 -3 -15 -5 -3 -9 1 -9
9 0 17 3 19 12 6z m121 -13 c4 -7 4 -10 -1 -6 -4 4 -15 2 -24 -5 -14 -11 -14
-10 -2 6 16 20 18 21 27 5z m360 -14 c-3 -8 -1 -14 4 -14 6 0 10 4 10 8 0 5
14 9 31 10 l30 1 -25 -20 c-14 -11 -30 -18 -36 -14 -5 3 -8 0 -5 -7 3 -7 -4
-19 -16 -26 -18 -12 -23 -11 -36 7 -8 12 -19 21 -25 21 -7 0 -3 -7 8 -15 10
-8 15 -15 9 -15 -5 0 -3 -5 5 -11 12 -8 12 -12 2 -16 -7 -3 -25 -16 -41 -28
-18 -16 -36 -22 -52 -19 -20 4 -21 3 -5 -4 11 -5 15 -11 10 -15 -14 -8 -54 3
-54 14 0 5 -8 9 -17 9 -13 0 -14 -3 -6 -11 6 -6 9 -18 6 -25 -3 -8 0 -14 6
-14 6 0 11 5 11 10 0 6 8 10 18 10 12 0 4 -12 -28 -40 -24 -22 -49 -40 -55
-40 -5 1 0 9 13 19 12 11 19 21 15 24 -5 2 -2 2 5 0 8 -1 12 3 9 9 -2 7 -13
12 -23 10 -18 -2 -18 -2 -1 8 9 6 15 16 11 21 -4 6 -12 6 -22 -2 -10 -6 1 5
23 25 40 36 47 40 75 37 12 -1 12 0 2 7 -10 7 5 22 54 59 63 47 102 59 90 27z
m127 4 c-13 -12 -26 -19 -29 -15 -4 4 1 14 12 22 29 22 41 18 17 -7z m-893 2
c0 -5 -5 -10 -11 -10 -5 0 -7 5 -4 10 3 6 8 10 11 10 2 0 4 -4 4 -10z m130 7
c0 -2 -15 -13 -32 -26 l-33 -22 28 25 c26 24 37 31 37 23z m185 -16 c-3 -6
-11 -11 -17 -11 -6 0 -6 6 2 15 14 17 26 13 15 -4z m78 -21 c-3 -12 -8 -19
-11 -16 -5 6 5 36 12 36 2 0 2 -9 -1 -20z m-373 6 c0 -2 -7 -7 -16 -10 -8 -3
-12 -2 -9 4 6 10 25 14 25 6z m835 -6 c-3 -5 0 -7 8 -4 8 3 18 1 22 -5 3 -6 1
-11 -5 -11 -6 0 -9 -4 -6 -9 8 -13 -102 -104 -115 -95 -7 4 -9 3 -5 -4 7 -12
-48 -55 -58 -44 -4 4 -6 2 -4 -5 4 -14 -97 -93 -120 -93 -8 0 -12 -3 -9 -6 3
-4 -4 -15 -17 -25 -27 -21 -47 -26 -28 -7 9 9 9 15 0 25 -9 11 -16 9 -41 -14
-19 -18 -25 -21 -17 -8 22 35 117 105 134 99 14 -5 20 4 18 27 -1 8 154 131
186 148 12 7 28 9 35 5 9 -6 8 -3 -1 8 -10 13 -10 17 0 21 21 9 30 8 23 -3z
m-522 -15 c-3 -9 -8 -14 -10 -11 -3 3 -2 9 2 15 9 16 15 13 8 -4z m-84 -27
c-13 -11 -32 -26 -41 -33 -16 -13 -18 -13 -18 0 0 8 6 15 14 15 8 0 16 7 20
15 3 8 11 14 18 13 7 -2 12 3 10 10 -1 8 2 11 9 6 9 -5 5 -13 -12 -26z m116
11 c-10 -15 -25 -10 -19 6 4 8 10 12 15 9 5 -3 7 -10 4 -15z m-55 7 c0 -2 -8
-10 -17 -17 -16 -13 -17 -12 -4 4 13 16 21 21 21 13z m-130 -20 c0 -2 -8 -10
-17 -17 -16 -13 -17 -12 -4 4 13 16 21 21 21 13z m70 -30 c0 -2 -8 -10 -17
-17 -16 -13 -17 -12 -4 4 13 16 21 21 21 13z m199 -9 c-2 -1 -13 -9 -24 -17
-19 -14 -19 -14 -6 3 7 9 18 17 24 17 6 0 8 -1 6 -3z m-49 -61 c-5 -5 -19 -10
-31 -11 -19 -2 -20 0 -6 10 20 15 52 16 37 1z m-215 -6 c-3 -5 -12 -7 -20 -3
-21 7 -19 13 6 13 11 0 18 -4 14 -10z m62 -17 c-14 -14 -19 -15 -29 -4 -9 10
-9 12 -1 7 6 -3 18 0 25 8 7 8 15 12 17 10 3 -3 -3 -12 -12 -21z m73 19 c0 -4
-15 -16 -32 -26 l-33 -18 29 26 c31 28 36 30 36 18z m184 -11 c3 -5 -2 -8 -12
-7 -9 0 -16 -4 -15 -10 1 -6 -5 -11 -13 -11 -11 0 -11 4 3 19 18 20 29 23 37
9z m-164 -15 c0 -3 -4 -8 -10 -11 -5 -3 -10 -1 -10 4 0 6 5 11 10 11 6 0 10
-2 10 -4z m-7 -30 c15 -8 27 -11 27 -5 0 5 5 9 11 9 8 0 8 -4 -1 -14 -12 -15
-31 -12 -65 11 -26 17 -7 17 28 -1z m107 -29 c0 -4 -6 -2 -14 5 -8 7 -12 17
-9 22 5 8 23 -12 23 -27z m50 2 c0 7 5 9 10 6 6 -4 0 -15 -14 -26 -21 -16 -29
-18 -43 -9 -17 11 -17 11 0 6 30 -10 40 4 20 27 l-18 22 23 -19 c13 -12 22
-14 22 -7z m-16 -164 c-4 -8 -1 -15 6 -15 6 0 9 -4 5 -9 -3 -6 -15 -8 -27 -6
-12 3 -29 -1 -37 -7 -9 -6 -1 3 18 21 38 35 43 37 35 16z m86 -1 c-8 -8 -23
-20 -34 -25 -13 -7 -9 -1 9 15 34 29 43 33 25 10z m-1018 -72 c4 -12 -2 -24
-16 -32 -17 -10 -19 -10 -9 0 8 9 9 19 2 32 -7 13 -6 18 4 18 8 0 17 -8 19
-18z m53 -157 c2 -20 1 -34 -2 -31 -3 3 -7 22 -9 42 -2 20 -1 34 2 31 3 -3 7
-22 9 -42z m535 -45 c0 -5 -7 -10 -16 -10 -8 0 -12 5 -9 10 3 6 10 10 16 10 5
0 9 -4 9 -10z"/>
<path d="M4736 4381 c-4 -7 -5 -15 -2 -18 9 -9 19 4 14 18 -4 11 -6 11 -12 0z"/>
<path d="M4780 4355 c0 -8 2 -15 4 -15 2 0 6 7 10 15 3 8 1 15 -4 15 -6 0 -10
-7 -10 -15z"/>
<path d="M4380 4123 c0 -25 1 -26 16 -11 9 9 13 21 10 27 -13 20 -26 11 -26
-16z"/>
<path d="M4540 4120 c0 -5 5 -10 10 -10 6 0 10 5 10 10 0 6 -4 10 -10 10 -5 0
-10 -4 -10 -10z"/>
<path d="M4590 4120 c0 -5 5 -10 10 -10 6 0 10 5 10 10 0 6 -4 10 -10 10 -5 0
-10 -4 -10 -10z"/>
<path d="M4961 4114 c0 -11 3 -14 6 -6 3 7 2 16 -1 19 -3 4 -6 -2 -5 -13z"/>
<path d="M5111 4114 c0 -11 3 -14 6 -6 3 7 2 16 -1 19 -3 4 -6 -2 -5 -13z"/>
<path d="M6091 4114 c0 -11 3 -14 6 -6 3 7 2 16 -1 19 -3 4 -6 -2 -5 -13z"/>
<path d="M6303 4134 c-3 -8 -1 -20 6 -27 8 -8 11 -4 11 16 0 30 -7 35 -17 11z"/>
<path d="M4651 4114 c0 -11 3 -14 6 -6 3 7 2 16 -1 19 -3 4 -6 -2 -5 -13z"/>
<path d="M4735 4121 c-3 -5 -1 -12 5 -16 5 -3 10 1 10 9 0 18 -6 21 -15 7z"/>
<path d="M5351 4114 c0 -11 3 -14 6 -6 3 7 2 16 -1 19 -3 4 -6 -2 -5 -13z"/>
<path d="M5431 4114 c0 -11 3 -14 6 -6 3 7 2 16 -1 19 -3 4 -6 -2 -5 -13z"/>
<path d="M5780 4121 c0 -6 5 -13 10 -16 6 -3 10 1 10 9 0 9 -4 16 -10 16 -5 0
-10 -4 -10 -9z"/>
<path d="M5830 4121 c0 -6 5 -13 10 -16 6 -3 10 1 10 9 0 9 -4 16 -10 16 -5 0
-10 -4 -10 -9z"/>
<path d="M5231 4114 c0 -11 3 -14 6 -6 3 7 2 16 -1 19 -3 4 -6 -2 -5 -13z"/>
<path d="M5595 3870 c3 -5 8 -10 11 -10 2 0 4 5 4 10 0 6 -5 10 -11 10 -5 0
-7 -4 -4 -10z"/>
<path d="M5730 3870 c0 -5 5 -10 10 -10 6 0 10 5 10 10 0 6 -4 10 -10 10 -5 0
-10 -4 -10 -10z"/>
<path d="M5780 3870 c0 -5 5 -10 10 -10 6 0 10 5 10 10 0 6 -4 10 -10 10 -5 0
-10 -4 -10 -10z"/>
<path d="M5830 3870 c0 -5 5 -10 10 -10 6 0 10 5 10 10 0 6 -4 10 -10 10 -5 0
-10 -4 -10 -10z"/>
<path d="M6051 3874 c0 -11 3 -14 6 -6 3 7 2 16 -1 19 -3 4 -6 -2 -5 -13z"/>
<path d="M6220 3870 c0 -5 5 -10 10 -10 6 0 10 5 10 10 0 6 -4 10 -10 10 -5 0
-10 -4 -10 -10z"/>
<path d="M6371 3864 c0 -11 3 -14 6 -6 3 7 2 16 -1 19 -3 4 -6 -2 -5 -13z"/>
<path d="M6496 3881 c-4 -7 -5 -15 -2 -18 9 -9 19 4 14 18 -4 11 -6 11 -12 0z"/>
<path d="M7030 2490 c0 -5 7 -7 15 -4 8 4 15 8 15 10 0 2 -7 4 -15 4 -8 0 -15
-4 -15 -10z"/>
<path d="M6954 2439 c-9 -15 14 -18 32 -4 18 13 18 14 -4 12 -13 -1 -26 -5
-28 -8z"/>
<path d="M7185 2333 c2 -10 4 -22 4 -27 1 -5 8 -3 16 4 12 10 12 14 0 26 -18
19 -24 18 -20 -3z"/>
<path d="M7157 2309 c7 -7 15 -10 18 -7 3 3 -2 9 -12 12 -14 6 -15 5 -6 -5z"/>
<path d="M7042 2353 c2 -10 11 -17 21 -17 9 1 17 -3 17 -9 0 -15 13 1 16 19 2
11 -3 14 -17 11 -10 -3 -19 -1 -19 4 0 5 -5 9 -11 9 -6 0 -9 -8 -7 -17z"/>
<path d="M7016 2342 c-9 -15 -1 -29 25 -42 24 -13 25 1 1 31 -13 15 -21 19
-26 11z"/>
<path d="M6958 2295 c-16 -13 -23 -27 -18 -30 14 -9 30 3 31 23 0 11 2 13 6 4
4 -10 8 -10 19 -1 8 6 14 15 14 20 0 16 -25 9 -52 -16z"/>
<path d="M6972 2258 c2 -6 10 -14 16 -16 7 -2 10 2 6 12 -7 18 -28 22 -22 4z"/>
<path d="M7810 2255 c-8 -10 -17 -12 -23 -6 -13 13 -67 -7 -67 -25 0 -7 -6
-11 -14 -8 -8 3 -17 0 -22 -7 -5 -8 -3 -10 6 -4 9 6 12 4 8 -7 -5 -11 1 -15
23 -15 23 0 25 2 13 11 -12 10 -13 14 -1 30 11 15 17 17 36 7 18 -10 26 -8 51
9 17 12 30 23 30 26 0 10 -29 2 -40 -11z"/>
<path d="M7743 2217 c0 -8 6 -14 14 -14 15 0 12 19 -3 24 -6 2 -11 -3 -11 -10z"/>
<path d="M7630 2273 c0 -23 27 -35 49 -21 12 7 21 17 21 22 0 5 -9 1 -21 -10
-20 -18 -21 -18 -35 1 -8 10 -14 14 -14 8z"/>
<path d="M7578 2218 c5 -5 16 -8 23 -6 8 3 3 7 -10 11 -17 4 -21 3 -13 -5z"/>
<path d="M7556 2193 c-6 -14 -5 -15 5 -6 7 7 10 15 7 18 -3 3 -9 -2 -12 -12z"/>
<path d="M7460 2140 c-9 -6 -10 -10 -3 -10 6 0 15 5 18 10 8 12 4 12 -15 0z"/>
<path d="M7626 2127 c3 -10 9 -15 12 -12 3 3 0 11 -7 18 -10 9 -11 8 -5 -6z"/>
<path d="M7680 2081 c0 -5 5 -13 10 -16 6 -3 10 -2 10 4 0 5 -4 13 -10 16 -5
3 -10 2 -10 -4z"/>
<path d="M7716 2078 c3 -4 11 -5 19 -1 21 7 19 12 -4 10 -11 0 -18 -5 -15 -9z"/>
<path d="M7576 1983 c-6 -14 -5 -15 5 -6 7 7 10 15 7 18 -3 3 -9 -2 -12 -12z"/>
<path d="M7534 1972 c-6 -4 -14 -16 -17 -26 -6 -15 -5 -17 6 -8 8 7 16 10 18
7 3 -2 5 5 6 15 2 22 2 22 -13 12z"/>
<path d="M7442 1895 c-11 -13 -22 -21 -26 -18 -10 10 -7 -11 4 -27 9 -13 12
-13 21 3 5 9 17 17 26 17 13 0 13 2 2 16 -12 15 -11 16 11 9 22 -7 23 -6 11 9
-18 22 -26 20 -49 -9z"/>
<path d="M5812 4829 c4 -24 0 -37 -11 -45 -13 -10 -14 -16 -2 -40 62 -130 78
-136 79 -27 1 53 -2 71 -8 58 -7 -16 -9 -17 -9 -3 -1 9 -7 23 -15 31 -8 8 -14
22 -13 32 1 10 -4 20 -12 23 -10 3 -12 -3 -9 -29z"/>
<path d="M5115 4797 c-39 -23 -85 -53 -103 -65 l-33 -24 26 -20 c21 -16 25
-28 25 -74 0 -30 3 -54 8 -54 4 0 18 13 32 30 17 21 27 26 32 17 6 -9 8 -9 8
1 0 6 5 12 11 12 6 0 9 -7 5 -15 -3 -9 0 -15 8 -15 8 0 13 11 12 29 -1 16 -3
28 -6 26 -3 -2 -3 20 0 48 3 38 5 44 8 22 7 -55 17 -44 19 20 2 56 0 63 -15
59 -14 -5 -15 -4 -2 5 8 6 24 8 35 6 11 -3 14 -2 7 1 -10 5 -10 9 -1 20 19 23
-3 15 -76 -29z"/>
<path d="M7230 4733 c0 -4 16 -18 35 -31 45 -29 45 -22 0 12 -19 15 -35 23
-35 19z"/>
<path d="M4963 4674 c-5 -12 -7 -13 -14 -3 -4 8 -11 10 -16 6 -4 -5 -1 -12 7
-17 9 -6 19 -5 24 0 13 13 29 13 21 1 -3 -5 -1 -12 5 -16 5 -3 10 3 10 13 0
25 -29 37 -37 16z"/>
<path d="M7315 4668 c7 -16 55 -52 54 -41 0 4 -13 18 -30 31 -16 13 -27 18
-24 10z"/>
<path d="M4882 4640 c-9 -12 -18 -25 -18 -30 -1 -6 -2 -16 -3 -22 -1 -8 -7 -5
-16 6 -16 21 -21 11 -7 -12 9 -13 41 -7 43 9 3 19 5 25 17 47 16 28 8 29 -16
2z"/>
<path d="M4906 4632 c-12 -15 -13 -21 -3 -32 9 -10 9 -11 0 -6 -7 4 -13 3 -13
-2 0 -12 31 -25 39 -17 3 3 0 14 -6 24 -13 21 -8 31 16 31 14 0 14 -2 1 -11
-11 -7 -12 -12 -3 -15 7 -3 9 -12 6 -21 -4 -11 -2 -14 8 -11 8 3 13 11 11 17
-1 7 2 10 7 7 13 -8 20 -45 10 -52 -5 -3 -9 -1 -9 4 0 5 -9 12 -20 15 -11 3
-20 2 -20 -1 0 -10 70 -54 71 -45 0 5 2 20 4 36 2 15 -1 27 -6 27 -6 0 -6 7 1
19 15 29 12 33 -11 21 -11 -7 -23 -9 -27 -6 -3 3 0 6 6 6 7 0 12 5 12 11 0 6
-6 9 -12 6 -7 -2 -20 -1 -29 4 -11 6 -22 3 -33 -9z"/>
<path d="M4876 4545 c4 -10 0 -15 -14 -15 -30 0 -35 -15 -6 -16 13 -1 24 3 24
9 0 7 4 7 12 -1 15 -15 32 -16 22 -1 -4 8 1 9 17 4 24 -7 24 -7 4 12 -15 15
-21 17 -23 6 -5 -18 -22 -17 -22 2 0 8 -4 15 -10 15 -5 0 -7 -7 -4 -15z"/>
<path d="M5032 4530 c0 -14 2 -19 5 -12 2 6 2 18 0 25 -3 6 -5 1 -5 -13z"/>
<path d="M4787 4524 c6 -16 19 -18 27 -5 3 5 -3 11 -13 14 -14 3 -18 1 -14 -9z"/>
<path d="M5488 4515 c-3 -14 -1 -25 3 -25 5 0 9 11 9 25 0 14 -2 25 -4 25 -2
0 -6 -11 -8 -25z"/>
<path d="M5510 4530 c0 -5 5 -10 11 -10 5 0 7 5 4 10 -3 6 -8 10 -11 10 -2 0
-4 -4 -4 -10z"/>
<path d="M5916 4495 c4 -8 10 -12 15 -9 11 6 2 24 -11 24 -5 0 -7 -7 -4 -15z"/>
<path d="M7616 4365 c4 -8 10 -15 16 -15 5 0 6 -10 2 -22 -3 -13 -3 -20 1 -16
4 4 17 2 28 -4 16 -8 13 -1 -12 31 -35 43 -44 51 -35 26z"/>
<path d="M4332 3866 c-36 -91 -82 -249 -82 -280 0 -20 0 -20 16 0 8 10 13 13
9 6 -4 -7 2 -15 12 -19 10 -4 21 -11 24 -16 4 -5 25 -10 48 -11 22 0 41 -4 41
-8 0 -8 122 -2 177 8 18 4 31 10 28 14 -3 5 3 6 14 3 10 -3 22 0 25 6 4 6 16
11 27 11 11 0 42 23 70 50 28 28 55 50 61 50 6 0 9 3 5 6 -3 4 1 13 9 22 14
13 17 13 26 1 7 -10 8 -9 4 7 -4 11 -1 45 5 75 6 30 14 78 18 107 l8 52 -256
0 -257 0 -32 -84z"/>
<path d="M5040 3940 c0 -5 9 -10 20 -10 11 0 20 5 20 10 0 6 -9 10 -20 10 -11
0 -20 -4 -20 -10z"/>
<path d="M5086 3883 c4 -21 7 -47 7 -59 -1 -20 1 -20 43 -6 l44 14 -35 35
c-19 19 -35 39 -35 44 0 5 -7 9 -16 9 -12 0 -14 -7 -8 -37z"/>
<path d="M7933 3765 c-3 -9 -3 -18 -1 -21 3 -3 8 4 11 16 6 23 -1 27 -10 5z"/>
<path d="M7934 3715 c-3 -8 -4 -20 -2 -27 3 -7 7 -1 10 15 6 29 1 36 -8 12z"/>
<path d="M7641 3694 c0 -11 3 -14 6 -6 3 7 2 16 -1 19 -3 4 -6 -2 -5 -13z"/>
<path d="M7921 3604 c0 -11 3 -14 6 -6 3 7 2 16 -1 19 -3 4 -6 -2 -5 -13z"/>
<path d="M8002 3535 c0 -16 2 -22 5 -12 2 9 2 23 0 30 -3 6 -5 -1 -5 -18z"/>
<path d="M6000 3487 c-31 -16 -39 -47 -12 -47 11 0 25 7 32 15 7 8 23 15 36
15 27 0 32 15 8 24 -23 9 -36 7 -64 -7z"/>
<path d="M8011 3484 c0 -11 3 -14 6 -6 3 7 2 16 -1 19 -3 4 -6 -2 -5 -13z"/>
<path d="M7912 3460 c0 -14 2 -19 5 -12 2 6 2 18 0 25 -3 6 -5 1 -5 -13z"/>
<path d="M8022 3400 c0 -14 2 -19 5 -12 2 6 2 18 0 25 -3 6 -5 1 -5 -13z"/>
<path d="M8033 3305 c0 -22 2 -30 4 -17 2 12 2 30 0 40 -3 9 -5 -1 -4 -23z"/>
<path d="M5069 3305 c-3 -3 -304 -5 -668 -5 -429 0 -670 -4 -682 -11 -17 -9
-19 -22 -19 -124 0 -102 2 -117 20 -135 20 -20 31 -20 1083 -18 l1062 3 3 110
c4 138 0 151 -40 164 -21 6 -162 10 -375 10 -188 0 -351 2 -361 5 -10 4 -21 4
-23 1z m676 -141 c1 -25 -2 -47 -6 -50 -4 -2 -8 4 -8 13 0 10 -1 25 -2 33 -1
8 -1 26 -1 39 3 40 16 14 17 -35z m-1743 11 c-2 -19 -8 -33 -12 -30 -6 4 -7
26 -1 58 0 4 5 7 9 7 4 0 6 -16 4 -35z m869 -2 c-4 -34 -5 -36 -11 -13 -4 14
-2 31 3 38 13 17 14 16 8 -25z m87 -6 c-4 -30 -53 -32 -54 -2 0 11 4 26 9 32
14 20 49 -4 45 -30z m89 -9 c-2 -13 -4 -5 -4 17 -1 22 1 32 4 23 2 -10 2 -28
0 -40z m93 42 c0 -5 -8 -11 -17 -11 -17 -1 -17 -2 0 -6 9 -2 17 -9 17 -14 0
-6 -4 -8 -9 -4 -5 3 -12 1 -15 -4 -4 -5 2 -12 11 -14 14 -4 13 -5 -4 -6 -19
-1 -23 4 -23 28 0 26 9 38 33 40 4 1 7 -3 7 -9z m62 -36 c-9 -13 -21 -24 -26
-24 -5 0 -2 8 7 18 21 23 22 36 2 28 -8 -3 -15 -1 -15 3 0 14 24 19 37 9 10
-8 9 -15 -5 -34z m242 25 c-12 -20 8 -27 26 -9 28 28 40 25 40 -9 0 -28 -2
-29 -50 -29 -27 0 -50 4 -50 9 0 5 7 6 15 3 8 -4 15 -1 15 5 0 6 -4 11 -8 11
-4 0 -8 8 -8 19 0 11 5 17 13 14 7 -3 10 -9 7 -14z m131 11 c3 -5 -2 -10 -12
-10 -15 0 -14 -2 5 -16 12 -8 20 -20 17 -25 -8 -13 -42 -11 -51 2 -4 8 1 9 17
5 23 -7 23 -6 5 8 -10 9 -16 22 -13 31 7 17 23 20 32 5z m-1747 -28 c9 -27 8
-29 -19 -29 -33 0 -32 -1 -17 32 15 32 24 32 36 -3z m139 -19 c-3 -10 -5 -2
-5 17 0 19 2 27 5 18 2 -10 2 -26 0 -35z m185 17 c5 -36 -8 -41 -14 -5 -4 21
-1 35 8 35 1 0 4 -13 6 -30z m125 -17 c-3 -10 -5 -2 -5 17 0 19 2 27 5 18 2
-10 2 -26 0 -35z m173 17 c0 -23 -5 -30 -19 -30 -11 0 -22 4 -25 9 -9 14 4 39
22 44 10 3 18 5 20 6 1 0 2 -12 2 -29z m185 -5 c0 -14 -2 -25 -6 -25 -8 0 -18
48 -11 55 9 8 15 -4 17 -30z m392 -12 c-3 -10 -5 -2 -5 17 0 19 2 27 5 18 2
-10 2 -26 0 -35z m585 17 c5 -34 -7 -41 -15 -8 -5 19 -2 38 7 38 2 0 6 -13 8
-30z m70 0 c-2 -16 -6 -30 -8 -30 -2 0 -4 14 -4 30 0 17 4 30 8 30 5 0 7 -13
4 -30z m-1787 11 c7 -12 -12 -24 -25 -16 -11 7 -4 25 10 25 5 0 11 -4 15 -9z
m51 -9 c1 -7 0 -8 -3 -2 -7 15 -23 12 -23 -4 0 -8 8 -16 18 -18 9 -2 -5 -4
-33 -5 -42 -1 -46 1 -25 9 14 5 29 16 33 24 10 17 29 14 33 -4z m123 -9 l-1
-28 -8 25 c-7 21 -15 12 -11 -12 0 -5 -4 -8 -10 -8 -6 0 -8 7 -5 16 3 9 6 20
6 25 0 5 7 9 15 9 10 0 15 -9 14 -27z m46 17 c4 -6 3 -9 -2 -8 -4 2 -9 -1 -9
-7 -1 -5 2 -9 7 -7 12 3 12 -15 0 -22 -13 -8 -34 21 -27 39 6 17 22 20 31 5z
m106 -20 c5 0 9 -4 9 -8 0 -5 -15 -9 -32 -8 -23 1 -34 6 -36 19 -2 9 1 17 7
17 6 0 11 -7 11 -17 0 -16 14 -10 16 8 3 21 7 23 11 7 2 -10 9 -18 14 -18z
m37 2 c2 -12 -1 -22 -7 -22 -6 0 -11 9 -11 21 0 13 -4 18 -12 13 -7 -4 -8 -3
-4 5 11 18 31 8 34 -17z m92 21 c0 -5 -7 -16 -14 -26 -13 -17 -14 -16 -12 7 0
15 7 26 14 26 6 0 12 -3 12 -7z m45 -2 c3 -5 1 -12 -4 -15 -5 -4 -12 0 -14 6
-3 8 -6 6 -6 -4 -1 -10 4 -18 10 -18 5 0 7 -5 4 -10 -5 -8 -11 -8 -19 -1 -7 6
-17 7 -21 3 -5 -4 -5 0 0 8 21 39 38 49 50 31z m120 -1 c5 -8 11 -7 21 1 10 8
18 8 27 0 10 -8 17 -7 25 1 9 9 12 6 12 -15 0 -26 -19 -40 -21 -14 0 10 -2 10
-6 0 -2 -7 -13 -13 -24 -13 -10 0 -19 6 -20 13 0 10 -2 10 -6 0 -2 -7 -11 -13
-18 -13 -7 0 -16 -6 -18 -12 -3 -7 -6 4 -6 25 -1 36 19 52 34 27z m154 3 c0
-5 -4 -17 -9 -28 -8 -18 -9 -17 -9 8 -1 15 4 27 9 27 6 0 10 -3 9 -7z m49 -21
c3 -16 -2 -22 -17 -22 -22 0 -36 16 -22 24 5 4 12 0 15 -6 3 -7 3 -2 0 11 -4
17 -2 22 7 19 8 -3 15 -14 17 -26z m19 -9 c-3 -10 -5 -4 -5 12 0 17 2 24 5 18
2 -7 2 -21 0 -30z m33 11 c0 -14 -4 -23 -10 -19 -5 3 -10 15 -10 26 0 10 5 19
10 19 6 0 10 -12 10 -26z m74 10 c7 -19 -1 -34 -19 -34 -18 0 -28 17 -21 35 7
20 32 19 40 -1z m164 -12 c5 -31 -15 -27 -21 3 -3 16 0 24 7 22 6 -2 12 -13
14 -25z m299 -2 l3 -25 -11 25 -12 25 -7 -25 -8 -25 -1 28 c-1 22 3 28 17 25
10 -2 18 -14 19 -28z m71 2 c2 -12 -1 -22 -7 -22 -6 0 -11 4 -11 9 0 5 -3 17
-7 27 -4 12 -2 15 8 12 8 -2 15 -14 17 -26z m272 8 c0 7 2 11 5 9 2 -3 1 -15
-2 -28 l-6 -23 -13 23 c-18 32 -17 49 1 25 10 -13 15 -15 15 -6z m66 -11 c1
-27 0 -29 -14 -16 -8 9 -12 23 -9 31 10 26 22 18 23 -15z m-1414 -11 c-9 -9
-12 -7 -12 12 0 19 3 21 12 12 9 -9 9 -15 0 -24z m958 12 c0 -11 -4 -20 -10
-20 -5 0 -10 9 -10 20 0 11 5 20 10 20 6 0 10 -9 10 -20z m-271 -35 c0 -5 -4
-3 -9 5 -5 8 -9 22 -9 30 0 16 17 -16 18 -35z m361 25 c0 -5 -2 -10 -4 -10 -3
0 -8 5 -11 10 -3 6 -1 10 4 10 6 0 11 -4 11 -10z m-380 -24 c0 -3 -4 -8 -10
-11 -5 -3 -10 -1 -10 4 0 6 5 11 10 11 6 0 10 -2 10 -4z"/>
<path d="M4920 3177 c0 -27 13 -36 26 -16 3 6 -1 18 -10 27 -15 15 -16 14 -16
-11z"/>
<path d="M5476 3171 c-4 -7 -5 -15 -2 -18 9 -9 19 4 14 18 -4 11 -6 11 -12 0z"/>
<path d="M3800 3169 c0 -5 5 -7 10 -4 6 3 10 8 10 11 0 2 -4 4 -10 4 -5 0 -10
-5 -10 -11z"/>
<path d="M4420 3166 c0 -9 5 -16 10 -16 6 0 10 4 10 9 0 6 -4 13 -10 16 -5 3
-10 -1 -10 -9z"/>
<path d="M4496 3171 c-4 -7 -5 -15 -2 -18 9 -9 19 4 14 18 -4 11 -6 11 -12 0z"/>
<path d="M4546 3171 c-4 -7 -5 -15 -2 -18 9 -9 19 4 14 18 -4 11 -6 11 -12 0z"/>
<path d="M4816 3171 c-4 -5 -2 -12 3 -15 5 -4 12 -2 15 3 4 5 2 12 -3 15 -5 4
-12 2 -15 -3z"/>
<path d="M6150 3255 c0 -15 4 -24 10 -20 6 3 10 12 10 20 0 8 -4 17 -10 20 -6
4 -10 -5 -10 -20z"/>
<path d="M6140 3104 c0 -8 5 -12 10 -9 6 3 10 10 10 16 0 5 -4 9 -10 9 -5 0
-10 -7 -10 -16z"/>
<path d="M6977 2972 c-23 -25 -25 -243 -3 -261 19 -16 713 -16 733 0 9 8 13
43 13 130 0 110 -1 119 -22 133 -19 14 -71 16 -364 16 -318 0 -342 -1 -357
-18z m127 -117 c5 -16 1 -20 -19 -20 -14 0 -25 1 -25 2 0 1 5 14 10 29 11 28
23 24 34 -11z m51 5 c0 -17 -5 -30 -12 -30 -8 0 -13 13 -13 30 0 17 5 30 13
30 7 0 12 -13 12 -30z m82 14 c2 -6 -8 -19 -22 -28 -25 -16 -25 -16 -25 14 0
27 3 31 22 28 12 -2 23 -8 25 -14z m112 4 c0 -7 -4 -22 -9 -33 -7 -17 -9 -15
-9 13 -1 17 4 32 9 32 6 0 10 -6 9 -12z m126 -24 c1 -13 -2 -24 -6 -24 -8 0
-18 48 -11 55 9 9 17 -5 17 -31z m-196 -16 c-10 -18 -12 -19 -27 -5 -13 13
-13 19 -2 32 19 23 44 0 29 -27z m34 12 c-3 -11 -10 -20 -15 -20 -6 0 -7 7 -4
16 3 9 6 20 6 25 0 6 4 8 9 5 5 -3 7 -15 4 -26z m80 18 c3 -10 7 -10 19 0 11
9 18 10 23 2 3 -5 1 -10 -4 -10 -6 0 -11 -7 -11 -16 0 -9 5 -12 12 -8 7 5 8 3
4 -5 -6 -9 -13 -8 -27 5 -17 16 -19 16 -19 1 0 -21 -14 -22 -30 -2 -10 12 -10
18 0 30 15 18 27 19 33 3z m104 -25 c-3 -10 -5 -4 -5 12 0 17 2 24 5 18 2 -7
2 -21 0 -30z m49 22 c6 -14 8 -13 20 2 12 17 14 17 30 1 14 -14 16 -20 6 -30
-9 -9 -12 -8 -12 5 0 9 -4 17 -10 17 -5 0 -10 -7 -10 -17 0 -9 -3 -13 -7 -10
-3 4 -12 2 -19 -4 -17 -14 -34 -3 -34 20 0 32 26 43 36 16z"/>
<path d="M7200 2870 c0 -5 7 -10 16 -10 8 0 12 5 9 10 -3 6 -10 10 -16 10 -5
0 -9 -4 -9 -10z"/>
<path d="M7262 2850 c0 -14 2 -19 5 -12 2 6 2 18 0 25 -3 6 -5 1 -5 -13z"/>
<path d="M7372 2850 c0 -14 2 -19 5 -12 2 6 2 18 0 25 -3 6 -5 1 -5 -13z"/>
<path d="M7520 2850 c0 -5 5 -10 10 -10 6 0 10 5 10 10 0 6 -4 10 -10 10 -5 0
-10 -4 -10 -10z"/>
<path d="M4318 2863 c12 -2 32 -2 45 0 12 2 2 4 -23 4 -25 0 -35 -2 -22 -4z"/>
<path d="M4311 2754 c0 -11 3 -14 6 -6 3 7 2 16 -1 19 -3 4 -6 -2 -5 -13z"/>
<path d="M7355 2600 c3 -5 8 -10 11 -10 2 0 4 5 4 10 0 6 -5 10 -11 10 -5 0
-7 -4 -4 -10z"/>
<path d="M7320 2586 c10 -12 8 -21 -10 -46 -19 -26 -24 -29 -38 -18 -14 12
-14 11 -1 -9 11 -19 15 -20 22 -8 4 8 13 15 19 15 6 0 17 8 24 18 7 9 14 12
14 6 0 -6 -7 -17 -15 -24 -8 -7 -12 -16 -9 -21 9 -15 44 -10 51 7 6 15 8 15
20 -2 11 -15 13 -16 13 -2 0 20 -23 44 -50 53 -11 3 -20 12 -20 20 0 7 -7 16
-16 19 -14 5 -15 4 -4 -8z m41 -69 c-10 -9 -11 -8 -5 6 3 10 9 15 12 12 3 -3
0 -11 -7 -18z"/>
<path d="M7226 2581 c-4 -5 -22 -8 -42 -7 -26 3 -34 0 -30 -10 3 -8 0 -14 -6
-14 -9 0 -9 -3 0 -12 16 -16 15 -28 -1 -28 -9 0 -13 11 -12 30 1 17 -3 30 -9
30 -13 0 -14 -39 -2 -58 4 -7 4 -18 -1 -24 -8 -15 43 16 69 41 34 32 49 43 54
38 2 -2 -14 -21 -36 -41 -22 -20 -36 -36 -31 -36 5 0 16 6 23 13 33 30 78 57
78 46 0 -7 3 -9 7 -5 4 4 -3 16 -17 26 -28 22 -36 24 -44 11z m-38 -31 c-13
-21 -28 -27 -28 -10 0 5 8 14 18 19 23 14 24 14 10 -9z"/>
<path d="M7292 2574 c10 -10 20 -15 24 -12 3 4 -5 12 -18 18 -22 12 -22 12 -6
-6z"/>
<path d="M7390 2579 c0 -6 7 -8 16 -5 12 4 14 1 9 -14 -4 -11 -3 -20 2 -20 5
0 13 -10 18 -22 7 -17 20 -23 48 -25 20 -1 37 2 37 7 0 14 -40 22 -54 11 -14
-12 -26 -5 -26 15 0 7 8 10 20 7 14 -4 26 1 35 13 7 11 17 15 21 11 5 -4 2
-12 -6 -17 -8 -5 -12 -12 -9 -15 10 -9 39 6 39 20 0 17 -40 31 -49 17 -6 -10
-25 -15 -49 -13 -7 0 -11 5 -7 11 3 5 12 7 19 4 8 -3 17 0 21 6 4 7 -2 9 -19
6 -14 -3 -28 0 -31 5 -8 13 -35 11 -35 -2z"/>
<path d="M7350 2575 c0 -2 10 -10 23 -16 20 -11 21 -11 8 4 -13 16 -31 23 -31
12z"/>
<path d="M7556 2541 c4 -16 3 -21 -5 -17 -6 4 -11 4 -12 -1 0 -4 -2 -16 -4
-25 -2 -10 1 -18 6 -18 5 0 9 6 9 14 0 8 7 16 15 20 8 3 15 13 15 21 0 9 -4
14 -9 11 -5 -4 -12 0 -15 6 -3 7 -3 2 0 -11z"/>
<path d="M7576 2514 c-17 -24 -17 -27 -2 -42 10 -11 16 -12 16 -4 0 7 -5 12
-11 12 -5 0 -7 5 -4 10 3 6 18 7 33 4 26 -6 26 -6 7 9 -12 10 -15 16 -7 17 7
0 10 5 7 10 -9 15 -18 12 -39 -16z"/>
<path d="M7225 2500 c3 -5 8 -10 11 -10 2 0 4 5 4 10 0 6 -5 10 -11 10 -5 0
-7 -4 -4 -10z"/>
<path d="M5998 2443 c6 -2 12 -20 12 -39 0 -36 -15 -47 -23 -16 -3 10 -5 6 -6
-11 -1 -35 24 -66 33 -41 3 9 6 31 6 50 0 22 6 37 15 40 26 11 16 24 -17 23
-18 0 -27 -3 -20 -6z"/>
<path d="M7335 2440 c-3 -5 -1 -10 4 -10 6 0 11 5 11 10 0 6 -2 10 -4 10 -3 0
-8 -4 -11 -10z"/>
<path d="M5543 2432 c-18 -2 -33 -9 -32 -15 3 -49 59 -61 96 -21 13 15 22 29
19 31 -7 7 -43 9 -83 5z"/>
<path d="M5644 2429 c-3 -5 0 -9 6 -9 15 0 44 -29 46 -46 1 -8 -2 -14 -8 -14
-6 0 -8 -9 -5 -20 3 -11 1 -20 -5 -20 -6 0 -8 -7 -4 -15 3 -8 1 -15 -5 -15 -6
0 -7 -5 -4 -10 4 -6 11 -7 17 -4 7 4 8 2 4 -5 -4 -6 -12 -8 -18 -5 -8 5 -9 1
-3 -12 4 -10 10 -29 13 -42 4 -20 10 -23 46 -20 l41 3 3 122 3 121 -61 0 c-33
-1 -63 -5 -66 -9z"/>
<path d="M5960 2425 c0 -8 5 -15 10 -15 6 0 10 7 10 15 0 8 -4 15 -10 15 -5 0
-10 -7 -10 -15z"/>
<path d="M4912 2390 c-13 -11 -18 -21 -12 -25 5 -3 10 -1 10 5 0 6 6 8 13 4 6
-4 9 -4 5 1 -4 4 -3 14 3 22 16 18 8 16 -19 -7z"/>
<path d="M5045 2399 c-11 -16 -1 -19 13 -3 7 8 8 14 3 14 -5 0 -13 -5 -16 -11z"/>
<path d="M5120 2400 c0 -5 5 -10 11 -10 5 0 7 5 4 10 -3 6 -8 10 -11 10 -2 0
-4 -4 -4 -10z"/>
<path d="M7375 2397 c-15 -17 -7 -47 13 -47 12 0 13 3 4 12 -14 14 -16 32 -2
23 6 -3 7 1 4 9 -7 19 -6 19 -19 3z"/>
<path d="M4952 2388 c-17 -17 -15 -38 4 -38 13 0 14 3 5 13 -8 10 -7 17 1 25
7 7 10 12 7 12 -3 0 -10 -5 -17 -12z"/>
<path d="M5151 2364 c0 -11 3 -14 6 -6 3 7 2 16 -1 19 -3 4 -6 -2 -5 -13z"/>
<path d="M5084 2354 c3 -9 6 -20 6 -25 0 -5 7 -9 15 -9 8 0 15 5 15 10 0 7 6
7 20 0 12 -7 20 -7 20 -1 0 10 -31 23 -46 20 -21 -3 -28 2 -14 11 13 8 12 10
-4 10 -12 0 -16 -5 -12 -16z"/>
<path d="M5540 2359 c0 -5 5 -7 10 -4 6 3 10 8 10 11 0 2 -4 4 -10 4 -5 0 -10
-5 -10 -11z"/>
<path d="M7325 2359 l-20 -9 20 3 c12 2 25 -6 32 -18 7 -11 12 -15 13 -9 0 23
-25 42 -45 33z"/>
<path d="M4895 2340 c5 -8 8 -23 7 -32 -4 -24 4 -23 11 2 3 11 -2 25 -11 32
-13 11 -14 11 -7 -2z"/>
<path d="M4990 2321 c0 -7 -4 -9 -10 -6 -5 3 -10 2 -10 -4 0 -5 4 -12 9 -15
10 -6 25 24 16 32 -3 3 -5 0 -5 -7z"/>
<path d="M5071 2284 c0 -11 3 -14 6 -6 3 7 2 16 -1 19 -3 4 -6 -2 -5 -13z"/>
<path d="M4932 2275 c15 -16 20 -17 30 -6 11 11 10 13 0 7 -7 -4 -21 -2 -30 5
-15 12 -15 11 0 -6z"/>
<path d="M5142 2273 c-6 -2 -10 -9 -6 -14 8 -14 21 -11 21 6 0 8 -1 15 -1 14
-1 0 -7 -3 -14 -6z"/>
<path d="M4905 2250 c-3 -5 -1 -10 4 -10 6 0 11 5 11 10 0 6 -2 10 -4 10 -3 0
-8 -4 -11 -10z"/>
<path d="M5013 2245 c0 -8 14 -19 30 -24 25 -9 27 -9 18 3 -7 8 -8 16 -4 18 4
3 2 3 -6 1 -7 -2 -19 1 -26 7 -8 7 -12 5 -12 -5z"/>
<path d="M4933 2228 c1 -15 6 -23 11 -18 4 4 4 16 -2 26 -9 16 -10 14 -9 -8z"/>
<path d="M5090 2240 c-8 -5 -11 -12 -8 -16 4 -3 14 1 23 10 18 17 9 21 -15 6z"/>
<path d="M5146 2225 c7 -17 -11 -21 -21 -5 -9 15 -35 -7 -35 -29 1 -14 2 -14
14 2 20 26 31 20 12 -7 -15 -23 -15 -25 6 -32 24 -7 52 21 43 44 -3 8 -5 20
-5 28 0 8 -4 14 -10 14 -5 0 -7 -7 -4 -15z m-7 -56 c-19 -12 -24 -2 -8 17 9
11 14 13 17 4 3 -7 -2 -16 -9 -21z"/>
<path d="M7368 2223 c6 -2 18 -2 25 0 6 3 1 5 -13 5 -14 0 -19 -2 -12 -5z"/>
<path d="M5001 2196 c-10 -12 -8 -13 8 -9 12 3 18 9 15 14 -7 12 -10 11 -23
-5z"/>
<path d="M4955 2179 c-4 -6 -5 -12 -2 -15 2 -3 7 2 10 11 7 17 1 20 -8 4z"/>
<path d="M5046 2181 c-3 -5 1 -11 9 -14 9 -4 12 -1 8 9 -6 16 -10 17 -17 5z"/>
<path d="M4520 2150 c6 -11 13 -20 16 -20 2 0 0 9 -6 20 -6 11 -13 20 -16 20
-2 0 0 -9 6 -20z"/>
<path d="M4916 2154 c-5 -14 -4 -15 9 -4 17 14 19 20 6 20 -5 0 -12 -7 -15
-16z"/>
<path d="M5280 2160 c0 -5 5 -10 10 -10 6 0 10 5 10 10 0 6 -4 10 -10 10 -5 0
-10 -4 -10 -10z"/>
<path d="M4407 2097 c-32 -27 -34 -43 -8 -56 15 -8 20 -7 25 5 9 24 8 26 -16
18 -19 -6 -20 -5 -8 8 8 8 23 17 33 21 17 6 24 27 9 27 -5 0 -21 -10 -35 -23z"/>
<path d="M4454 2097 l-26 -20 23 -20 c15 -12 18 -17 7 -13 -9 2 -18 0 -20 -5
-2 -6 -12 -11 -23 -13 -23 -3 -33 -35 -14 -47 19 -11 31 0 24 22 -5 15 -3 17
11 12 11 -4 15 -2 11 4 -4 6 2 13 13 16 28 7 25 -3 -10 -41 -18 -20 -35 -30
-42 -26 -8 5 -9 2 -5 -9 4 -12 1 -17 -11 -17 -13 0 -14 -2 -3 -9 9 -6 10 -11
2 -15 -17 -11 -13 -24 9 -31 21 -7 28 -35 8 -35 -6 0 -9 -3 -6 -6 3 -3 15 1
27 8 17 11 25 11 42 0 21 -13 21 -13 3 12 -12 15 -25 23 -36 20 -9 -3 -19 0
-23 6 -3 5 0 10 8 10 7 0 19 12 25 26 7 14 8 23 2 19 -5 -3 -10 -1 -10 5 0 7
6 10 13 7 6 -2 11 -18 10 -36 -1 -20 3 -31 10 -28 7 2 11 13 10 23 -1 15 2 15
17 -6 10 -14 22 -21 26 -17 4 4 -3 18 -16 32 -31 33 -21 41 13 9 15 -14 27
-22 27 -18 0 3 7 0 17 -7 15 -13 15 -12 4 10 -7 13 -22 26 -32 28 -10 3 -19 9
-19 15 0 5 -12 7 -26 6 -19 -2 -27 2 -30 15 -1 12 2 17 11 13 16 -6 27 17 19
39 -7 18 0 19 29 4 20 -9 20 -9 5 4 -22 17 -23 28 -4 21 18 -7 61 30 51 45
-10 17 -23 13 -30 -9 -8 -25 -23 -26 -21 -3 2 25 -39 25 -70 0z m33 -7 c-3
-11 -1 -18 4 -14 5 3 9 12 9 20 0 8 5 14 10 14 6 0 10 -3 10 -8 0 -12 -30 -52
-39 -52 -14 0 -20 37 -8 49 16 16 20 13 14 -9z m-52 -159 c3 -5 1 -12 -5 -16
-5 -3 -10 1 -10 9 0 18 6 21 15 7z"/>
<path d="M4667 2109 c7 -7 15 -10 18 -7 3 3 -2 9 -12 12 -14 6 -15 5 -6 -5z"/>
<path d="M4711 2106 c-7 -8 3 -12 35 -12 29 -1 42 2 36 8 -14 14 -61 17 -71 4z"/>
<path d="M4815 2109 c-3 -4 8 -10 25 -14 16 -4 30 -11 30 -17 0 -6 2 -9 5 -6
3 3 3 12 0 21 -7 16 -52 29 -60 16z"/>
<path d="M4886 2098 c4 -13 10 -25 15 -28 4 -3 15 -21 24 -40 10 -22 14 -26
11 -11 l-5 23 22 -20 c22 -19 46 -19 59 2 4 6 2 14 -5 18 -9 6 -7 12 7 23 11
8 22 12 25 9 3 -3 -1 -9 -9 -14 -12 -7 -12 -12 -2 -22 13 -13 13 -13 16 43 2
23 -2 25 -39 27 -22 0 -34 -1 -27 -4 17 -8 15 -35 -2 -28 -8 3 -16 14 -19 24
-5 19 -21 21 -44 7 -8 -5 -13 -4 -13 2 0 6 -5 11 -11 11 -6 0 -8 -9 -3 -22z
m134 -2 c0 -3 -4 -8 -10 -11 -5 -3 -10 -1 -10 4 0 6 5 11 10 11 6 0 10 -2 10
-4z m-80 -36 c0 -5 -4 -10 -10 -10 -5 0 -10 5 -10 10 0 6 5 10 10 10 6 0 10
-4 10 -10z m39 -9 c8 -5 11 -16 7 -26 -6 -16 -21 -13 -21 3 0 4 -4 13 -8 20
-9 14 2 16 22 3z"/>
<path d="M5149 2082 c5 -34 6 -35 9 -8 2 16 0 32 -5 37 -5 5 -7 -7 -4 -29z"/>
<path d="M4604 2098 c-5 -8 -1 -9 12 -5 18 7 18 7 0 -8 -11 -8 -24 -15 -28
-15 -5 0 -5 -12 -2 -26 4 -17 2 -29 -7 -35 -11 -7 -11 -13 4 -38 13 -22 14
-31 5 -34 -7 -3 -8 -6 -3 -6 21 -1 34 15 28 37 -3 12 -9 19 -14 16 -20 -12 -7
26 13 40 20 14 24 14 43 -4 12 -11 24 -18 26 -15 3 2 19 5 37 7 37 3 37 4 17
25 -8 8 -13 19 -10 23 3 5 -13 14 -35 20 -22 6 -40 15 -40 20 0 14 -37 12 -46
-2z m46 -33 c0 -9 -9 -15 -25 -15 -14 0 -25 4 -25 10 0 5 6 7 14 4 8 -3 17 -1
21 5 9 15 15 14 15 -4z m53 -13 c10 -10 14 -22 10 -26 -4 -4 -16 3 -26 16
l-19 23 5 -23 c4 -19 3 -21 -8 -12 -16 13 -9 40 10 40 6 0 19 -8 28 -18z"/>
<path d="M5061 2103 c-2 -21 18 -25 41 -9 l22 16 -22 0 c-13 0 -20 -4 -17 -10
3 -5 2 -10 -4 -10 -5 0 -12 6 -14 13 -4 9 -6 9 -6 0z"/>
<path d="M4803 2077 c-9 -14 -43 -19 -43 -6 0 5 -4 9 -10 9 -17 0 -11 -29 9
-42 11 -7 17 -18 14 -27 -5 -13 -3 -14 7 -4 10 10 11 15 1 27 -8 10 -9 16 -1
21 5 3 10 1 10 -4 0 -6 3 -10 8 -10 19 3 26 -2 13 -10 -12 -8 -11 -12 4 -27
17 -17 17 -17 11 3 -5 15 -1 28 13 42 11 11 17 22 13 24 -24 13 -42 15 -49 4z"/>
<path d="M5110 2080 c0 -5 -11 -12 -25 -16 -15 -4 -22 -11 -18 -18 4 -6 6 -19
4 -30 -2 -12 1 -16 9 -11 6 4 10 16 7 26 -3 10 -2 21 3 24 11 7 19 -68 9 -79
-6 -6 -9 -5 -9 2 0 7 -10 12 -22 12 -22 0 -22 0 -3 -13 11 -7 33 -14 49 -15
23 -2 26 1 17 12 -15 18 -21 88 -8 104 6 8 6 12 -2 12 -6 0 -11 -4 -11 -10z"/>
<path d="M4555 2057 c-8 -19 -2 -31 13 -26 5 2 6 13 2 24 -7 19 -8 19 -15 2z"/>
<path d="M4875 2051 c-3 -6 -12 -8 -20 -5 -10 4 -12 0 -8 -15 3 -12 10 -18 17
-14 6 4 20 7 31 6 11 -2 14 0 7 3 -6 3 -10 10 -7 14 3 5 1 11 -4 14 -5 4 -12
2 -16 -3z"/>
<path d="M5040 2027 c-9 -8 -14 -24 -12 -46 2 -19 -2 -37 -8 -41 -9 -5 -9 -10
-1 -14 5 -4 20 3 31 14 21 21 21 22 4 35 -15 11 -16 15 -5 29 17 20 10 38 -9
23z"/>
<path d="M4527 2009 c7 -7 15 -10 18 -7 3 3 -2 9 -12 12 -14 6 -15 5 -6 -5z"/>
<path d="M4630 1999 c0 -5 5 -7 10 -4 6 3 10 8 10 11 0 2 -4 4 -10 4 -5 0 -10
-5 -10 -11z"/>
<path d="M4868 1994 c-4 -5 -3 -16 2 -24 4 -7 6 -19 3 -27 -3 -7 2 -13 12 -13
9 0 13 5 10 11 -4 6 -10 22 -14 37 -4 14 -10 22 -13 16z"/>
<path d="M4732 1970 c-11 -18 -10 -25 10 -53 13 -18 22 -33 20 -34 -7 -8 1
-19 23 -30 14 -6 23 -7 19 -2 -3 5 2 9 10 9 9 0 16 7 16 15 0 8 5 15 10 15 6
0 9 -3 8 -7 -2 -5 5 -19 15 -33 21 -30 22 -19 2 20 -19 36 -54 49 -71 26 -8
-12 -14 -14 -19 -6 -4 6 -2 17 4 24 14 17 -9 39 -33 30 -9 -3 -16 -2 -16 4 0
6 5 12 12 14 6 2 9 9 7 16 -3 8 -9 4 -17 -8z m88 -80 c0 -5 -5 -10 -11 -10 -5
0 -7 5 -4 10 3 6 8 10 11 10 2 0 4 -4 4 -10z"/>
<path d="M4896 1975 c4 -8 8 -15 10 -15 2 0 4 7 4 15 0 8 -4 15 -10 15 -5 0
-7 -7 -4 -15z"/>
<path d="M5000 1976 c0 -8 4 -17 9 -20 5 -4 7 3 4 14 -6 23 -13 26 -13 6z"/>
<path d="M4630 1970 c0 -6 7 -10 15 -10 8 0 15 2 15 4 0 2 -7 6 -15 10 -8 3
-15 1 -15 -4z"/>
<path d="M7670 1965 c0 -8 2 -15 4 -15 2 0 6 7 10 15 3 8 1 15 -4 15 -6 0 -10
-7 -10 -15z"/>
<path d="M4916 1935 c-15 -17 -29 -22 -44 -18 -12 3 -20 9 -17 13 8 13 -11 21
-29 14 -14 -5 -14 -9 5 -25 21 -18 34 -23 52 -20 14 2 49 -37 38 -43 -5 -4
-15 3 -21 14 -6 11 -16 17 -22 14 -7 -5 -6 -11 5 -19 9 -7 14 -15 10 -18 -9
-10 39 -8 54 1 9 6 6 14 -11 33 -22 24 -24 49 -4 49 6 0 8 -7 4 -15 -3 -8 -1
-15 5 -15 6 0 8 -4 4 -9 -3 -6 4 -15 15 -21 17 -9 31 -5 80 22 53 29 78 58 50
58 -5 0 -10 -7 -10 -15 0 -8 -3 -15 -7 -16 -9 -1 -29 -5 -53 -10 -8 -2 -18
-11 -22 -19 -5 -12 -7 -12 -7 3 -1 10 -9 17 -21 17 -11 0 -20 5 -20 11 0 6 7
9 15 6 8 -4 17 -1 21 5 4 7 3 8 -4 4 -7 -4 -12 -3 -12 2 0 22 -32 21 -54 -3z"/>
<path d="M4618 1927 c-32 -26 -35 -39 -13 -57 12 -10 13 -15 4 -20 -8 -6 -8
-9 0 -14 6 -4 11 -2 11 4 0 7 7 10 15 6 8 -3 15 -1 15 4 0 6 7 10 15 10 18 0
20 -16 3 -23 -7 -3 -3 -4 8 -4 15 1 20 6 16 16 -3 9 -1 12 6 7 19 -12 14 6
-10 31 -16 17 -19 26 -11 34 12 12 33 4 33 -12 0 -6 -6 -7 -12 -3 -8 5 -7 1 2
-10 8 -11 16 -14 18 -7 2 6 8 9 13 5 19 -11 8 12 -16 35 -24 22 -27 22 -44 7
-22 -20 -32 -21 -25 -1 8 20 4 19 -28 -8z m62 -55 c0 -2 -8 -1 -17 2 -9 4 -20
1 -25 -6 -6 -9 -8 -7 -6 7 2 11 -2 19 -9 18 -7 -2 -10 4 -7 12 5 12 11 10 35
-7 16 -12 29 -24 29 -26z"/>
<path d="M4486 1883 c-6 -14 -5 -15 5 -6 7 7 10 15 7 18 -3 3 -9 -2 -12 -12z"/>
<path d="M4534 1878 c-4 -6 -3 -8 4 -4 6 3 13 2 17 -4 4 -6 11 -7 17 -4 6 4 5
10 -3 15 -19 12 -27 11 -35 -3z"/>
<path d="M4530 1845 c-8 -9 -8 -15 -2 -15 12 0 26 19 19 26 -2 2 -10 -2 -17
-11z"/>
<path d="M4752 1820 c0 -14 2 -19 5 -12 2 6 2 18 0 25 -3 6 -5 1 -5 -13z"/>
<path d="M4782 1820 c0 -14 2 -19 5 -12 2 6 2 18 0 25 -3 6 -5 1 -5 -13z"/>
<path d="M4850 1810 c-13 -8 -12 -10 3 -10 9 0 17 5 17 10 0 12 -1 12 -20 0z"/>
<path d="M4795 1780 c-3 -6 1 -7 9 -4 18 7 21 14 7 14 -6 0 -13 -4 -16 -10z"/>
<path d="M7100 1604 c-21 -21 -22 -24 -6 -24 12 0 16 -5 13 -14 -4 -10 -1 -13
9 -9 19 7 18 19 -3 27 -14 6 -14 8 3 20 10 8 17 16 14 19 -3 2 -16 -6 -30 -19z"/>
<path d="M6365 1590 c3 -5 8 -10 11 -10 2 0 4 5 4 10 0 6 -5 10 -11 10 -5 0
-7 -4 -4 -10z"/>
<path d="M7050 1561 c-7 -15 -6 -20 6 -25 12 -5 15 -2 10 9 -3 9 -2 13 3 10 5
-3 12 -1 15 4 3 5 -1 11 -9 15 -8 3 -19 -3 -25 -13z"/>
<path d="M6205 1550 c3 -5 8 -10 11 -10 2 0 4 5 4 10 0 6 -5 10 -11 10 -5 0
-7 -4 -4 -10z"/>
<path d="M6240 1540 c0 -5 5 -10 10 -10 6 0 10 5 10 10 0 6 -4 10 -10 10 -5 0
-10 -4 -10 -10z"/>
<path d="M6330 1546 c0 -2 7 -7 16 -10 8 -3 12 -2 9 4 -6 10 -25 14 -25 6z"/>
<path d="M7116 1542 c-3 -5 1 -9 9 -9 8 0 15 4 15 9 0 4 -4 8 -9 8 -6 0 -12
-4 -15 -8z"/>
<path d="M6245 1510 c-3 -5 -1 -10 4 -10 6 0 11 5 11 10 0 6 -2 10 -4 10 -3 0
-8 -4 -11 -10z"/>
<path d="M7120 1509 c0 -5 5 -7 10 -4 6 3 10 8 10 11 0 2 -4 4 -10 4 -5 0 -10
-5 -10 -11z"/>
<path d="M6922 1470 c2 -7 -3 -15 -11 -18 -9 -3 -11 0 -6 8 5 8 4 11 -3 6 -11
-7 -6 -36 7 -36 3 0 14 7 24 14 16 12 16 15 2 26 -13 11 -16 11 -13 0z"/>
<path d="M6665 1350 c-3 -5 -1 -10 4 -10 6 0 11 5 11 10 0 6 -2 10 -4 10 -3 0
-8 -4 -11 -10z"/>
</g>
</svg>
