<svg xmlns="http://www.w3.org/2000/svg" version="1.1" xmlns:xlink="http://www.w3.org/1999/xlink" xmlns:svgjs="http://svgjs.dev/svgjs" width="2000" height="616" viewBox="0 0 2000 616"><g transform="matrix(1,0,0,1,-1.2121212121212466,-1.006518430543224)"><svg viewBox="0 0 396 122" data-background-color="#ffffff" preserveAspectRatio="xMidYMid meet" height="616" width="2000" xmlns="http://www.w3.org/2000/svg" xmlns:xlink="http://www.w3.org/1999/xlink"><g id="tight-bounds" transform="matrix(1,0,0,1,0.2400000000000091,0.199342935919276)"><svg viewBox="0 0 395.52 121.60131412816148" height="121.60131412816148" width="395.52"><g><svg viewBox="0 0 612.4841418730226 188.30622101137453" height="121.60131412816148" width="395.52"><g transform="matrix(1,0,0,1,216.96414187302267,58.18935553789228)"><svg viewBox="0 0 395.52 71.92750993558997" height="71.92750993558997" width="395.52"><g id="textblocktransform"><svg viewBox="0 0 395.52 71.92750993558997" height="71.92750993558997" width="395.52" id="textblock"><g><svg viewBox="0 0 395.52 71.92750993558997" height="71.92750993558997" width="395.52"><g transform="matrix(1,0,0,1,0,0)"><svg width="395.52" viewBox="2.37 -32.4 178.14 32.4" height="71.92750993558997" data-palette-color="#0e5ddd"><path d="M27.22 0L22.88 0 22.88-12.13 8.86-12.13 2.37-18.63 2.37-25.93 8.86-32.4 12.52-32.4 12.52-20.9 27.42-20.9 33.69-14.4 33.69-6.47 27.22 0ZM22.88-26.56L14.23-26.56 14.23-32.4 27.2-32.4 32.81-26.76 32.81-23.32 22.88-23.32 22.88-26.56ZM2.37-6.47L2.37-9.72 13.16-9.72 13.16-5.86 21.17-5.86 21.17 0 7.81 0 2.37-6.47ZM59.35-19.65L59.35-32.4 70.24-32.4 70.24 0 59.42 0 59.42-13.16 51.41-13.16 51.41-19.65 59.35-19.65ZM49.7-32.4L49.7 0 38.91 0 38.91-32.4 49.7-32.4ZM75.43 0L75.43-6.91 78.68-6.91 78.68-25.51 75.43-25.51 75.43-32.4 92.72-32.4 92.72-25.51 89.47-25.51 89.47-6.91 92.72-6.91 92.72 0 75.43 0ZM105.46-32.4L116.67 0 106.17 0 94.45-32.4 105.46-32.4ZM113.13-15.23L118.35-32.4 129.19-32.4 117.99-0.98 113.13-15.23ZM149.72 0L148.35-3.54 137.76-3.54 140-9.96 145.86-9.96 137.2-32.4 147.72-32.4 160.63 0 149.72 0ZM140.81-18.07L134.88 0 124.45 0 136.03-30.93 140.81-18.07ZM163.22 0L163.22-6.91 166.47-6.91 166.47-25.51 163.22-25.51 163.22-32.4 180.51-32.4 180.51-25.51 177.26-25.51 177.26-6.91 180.51-6.91 180.51 0 163.22 0Z" opacity="1" transform="matrix(1,0,0,1,0,0)" fill="#000000" class="wordmark-text-0" data-fill-palette-color="primary" id="text-0"></path></svg></g></svg></g></svg></g></svg></g><g><svg viewBox="0 0 199.98378303746833 188.30622101137453" height="188.30622101137453" width="199.98378303746833"><g><svg xmlns="http://www.w3.org/2000/svg" xmlns:xlink="http://www.w3.org/1999/xlink" version="1.1" x="0" y="0" viewBox="4.823 7.461 90.35399999999998 85.078" enable-background="new 0 0 100 100" xml:space="preserve" height="188.30622101137453" width="199.98378303746833" class="icon-icon-0" data-fill-palette-color="accent" id="icon-0"><path d="M4.823 7.461v85.078h90.354V7.461H4.823zM90.483 12.155v57.5l-1.611 0.002c-0.059 0.003-5.469 0.294-10.59-3.461-1.817-1.334-3.122-2.878-4.385-4.372-2.369-2.802-4.812-5.691-9.913-6.181l-1.562-0.072v0.072c-5.101 0.489-7.544 3.379-9.912 6.181-1.263 1.494-2.568 3.038-4.386 4.372-5.062 3.709-10.552 3.465-10.736 3.456H9.517V12.155H90.483zM9.517 87.845V74.346l27.724-0.004c0.286 0.018 7.179 0.392 13.658-4.361 2.267-1.662 3.823-3.502 5.194-5.125 2.179-2.577 3.668-4.34 7.109-4.565 3.441 0.226 4.931 1.988 7.109 4.565 1.372 1.623 2.928 3.463 5.194 5.125 5.522 4.051 11.344 4.377 13.03 4.377 0.292 0 0.461-0.009 0.481-0.012h1.465v13.499H9.517z" fill="#000000" data-fill-palette-color="accent"></path><path d="M32.398 45.597c5.662 0 10.268-4.605 10.268-10.268 0-5.662-4.605-10.267-10.268-10.267-5.662 0-10.267 4.605-10.267 10.267C22.131 40.992 26.737 45.597 32.398 45.597zM32.398 29.756c3.074 0 5.574 2.5 5.574 5.574 0 3.074-2.5 5.574-5.574 5.574-3.073 0-5.574-2.5-5.574-5.574C26.825 32.256 29.325 29.756 32.398 29.756z" fill="#000000" data-fill-palette-color="accent"></path></svg></g></svg></g></svg></g><defs></defs></svg><rect width="395.52" height="121.60131412816148" fill="none" stroke="none" visibility="hidden"></rect></g></svg></g></svg>